<svg width="49" height="49" viewBox="0 0 49 49" fill="none" xmlns="http://www.w3.org/2000/svg">
<rect x="16" y="16" width="17" height="17" fill="white"/>
<path d="M31.2839 22.3657L31.2831 22.3652L22.8126 16.9155C22.8122 16.9152 22.8117 16.9149 22.8112 16.9146C21.1282 15.8195 18.8955 17.0438 18.8955 19.0494V29.9519C18.8955 31.9574 21.1281 33.1817 22.8111 32.0868C22.8116 32.0865 22.8121 32.0862 22.8126 32.0858L31.2831 26.6361L31.2839 26.6357C31.6406 26.4052 31.9339 26.0891 32.137 25.7162C32.3401 25.3432 32.4465 24.9253 32.4465 24.5007C32.4465 24.076 32.3401 23.6581 32.137 23.2851C31.9339 22.9122 31.6406 22.5961 31.2839 22.3657ZM4.58301 24.5007C4.58301 13.5068 13.5058 4.58398 24.4997 4.58398C35.4935 4.58398 44.4163 13.5068 44.4163 24.5007C44.4163 35.4945 35.4935 44.4173 24.4997 44.4173C13.5058 44.4173 4.58301 35.4945 4.58301 24.5007Z" fill="#B7E7CA" stroke="#3F5347"/>
</svg>
