<svg width="54" height="54" viewBox="0 0 54 54" fill="none" xmlns="http://www.w3.org/2000/svg">
<rect x="17.6328" y="17.6328" width="18.7347" height="18.7347" fill="white"/>
<path d="M34.4488 24.69L34.448 24.6895L25.1129 18.6836C25.1125 18.6833 25.1121 18.683 25.1117 18.6828C23.2911 17.4979 20.875 18.8223 20.875 20.9925V33.0075C20.875 35.1777 23.2911 36.5021 25.1117 35.3172C25.1121 35.317 25.1125 35.3167 25.1129 35.3164L34.448 29.3105L34.4488 29.31C34.8348 29.0607 35.1521 28.7187 35.3718 28.3151C35.5916 27.9116 35.7067 27.4595 35.7067 27C35.7067 26.5405 35.5916 26.0884 35.3718 25.6849C35.1521 25.2813 34.8348 24.9393 34.4488 24.69ZM5 27C5 14.8561 14.8561 5 27 5C39.1439 5 49 14.8561 49 27C49 39.1439 39.1439 49 27 49C14.8561 49 5 39.1439 5 27Z" fill="#73BFB1" stroke="#58A786"/>
</svg>
