<svg width="32" height="32" viewBox="0 0 32 32" fill="none" xmlns="http://www.w3.org/2000/svg">
<mask id="path-1-inside-1_607_797" fill="white">
<path d="M24 25.0441C25.1046 25.0441 26.0276 24.1261 25.6725 23.0802C25.566 22.7667 25.434 22.4584 25.2769 22.1571C24.7994 21.2418 24.0997 20.4102 23.2175 19.7096C22.3354 19.0091 21.2881 18.4534 20.1355 18.0743C18.9829 17.6951 17.7476 17.5 16.5 17.5C15.2524 17.5 14.0171 17.6951 12.8645 18.0743C11.7119 18.4534 10.6646 19.0091 9.78249 19.7096C8.90033 20.4102 8.20056 21.2418 7.72314 22.1571C7.56601 22.4584 7.43398 22.7667 7.32755 23.0802C6.97243 24.1261 7.89543 25.0441 9 25.0441L16.5 25.0441H24Z"/>
</mask>
<path d="M24 25.0441C25.1046 25.0441 26.0276 24.1261 25.6725 23.0802C25.566 22.7667 25.434 22.4584 25.2769 22.1571C24.7994 21.2418 24.0997 20.4102 23.2175 19.7096C22.3354 19.0091 21.2881 18.4534 20.1355 18.0743C18.9829 17.6951 17.7476 17.5 16.5 17.5C15.2524 17.5 14.0171 17.6951 12.8645 18.0743C11.7119 18.4534 10.6646 19.0091 9.78249 19.7096C8.90033 20.4102 8.20056 21.2418 7.72314 22.1571C7.56601 22.4584 7.43398 22.7667 7.32755 23.0802C6.97243 24.1261 7.89543 25.0441 9 25.0441L16.5 25.0441H24Z" stroke="#515151" stroke-width="4" mask="url(#path-1-inside-1_607_797)"/>
<path d="M16.6879 5.59261C16.7604 5.59261 16.8322 5.59261 16.9036 5.59261C16.1986 6.22458 15.7454 7.07488 15.6229 7.99573C15.5003 8.91658 15.7161 9.84974 16.2328 10.633C16.7495 11.4163 17.5343 12.0001 18.451 12.283C19.3676 12.566 20.358 12.5301 21.25 12.1817C20.9069 12.9782 20.346 13.6699 19.6273 14.183C18.9086 14.6961 18.059 15.0114 17.1692 15.0952C16.2793 15.1791 15.3825 15.0283 14.5745 14.659C13.7664 14.2897 13.0775 13.7157 12.5811 12.9983C12.0847 12.2809 11.7995 11.447 11.7559 10.5855C11.7123 9.72396 11.9119 8.86718 12.3335 8.10653C12.755 7.34588 13.3828 6.7099 14.1496 6.26641C14.9165 5.82293 15.7938 5.58859 16.6879 5.58838V5.59261Z" stroke="#515151" stroke-width="2" stroke-linecap="round" stroke-linejoin="round"/>
<mask id="path-3-inside-2_607_797" fill="white">
<path d="M31.0676 16C31.5825 16 32.0028 16.4178 31.9728 16.9319C31.796 19.9637 30.7592 22.8897 28.9745 25.3628C27.0076 28.0884 24.2323 30.1254 21.0423 31.1847C17.8523 32.244 14.4098 32.2717 11.2031 31.264C7.99651 30.2563 5.18868 28.2643 3.17809 25.5707C1.16749 22.8771 0.0562618 19.6187 0.00207894 16.2579C-0.0521039 12.8971 0.953514 9.60459 2.87623 6.84758C4.79895 4.09057 7.54111 2.00911 10.7136 0.898548C13.5921 -0.109091 16.6921 -0.270997 19.649 0.421652C20.1504 0.539103 20.4315 1.06087 20.285 1.55457C20.1386 2.04827 19.6201 2.32656 19.1178 2.21297C16.5375 1.62944 13.8384 1.7805 11.3297 2.65867C8.52702 3.63979 6.10447 5.47865 4.40585 7.91433C2.70723 10.35 1.81882 13.2588 1.86669 16.2279C1.91456 19.197 2.89627 22.0756 4.67252 24.4552C6.44877 26.8349 8.92934 28.5947 11.7622 29.4849C14.5951 30.3752 17.6364 30.3507 20.4546 29.4149C23.2728 28.4791 25.7246 26.6795 27.4623 24.2715C29.0176 22.1162 29.9301 19.5715 30.1044 16.9318C30.1384 16.418 30.5526 16 31.0676 16Z"/>
</mask>
<path d="M31.0676 16C31.5825 16 32.0028 16.4178 31.9728 16.9319C31.796 19.9637 30.7592 22.8897 28.9745 25.3628C27.0076 28.0884 24.2323 30.1254 21.0423 31.1847C17.8523 32.244 14.4098 32.2717 11.2031 31.264C7.99651 30.2563 5.18868 28.2643 3.17809 25.5707C1.16749 22.8771 0.0562618 19.6187 0.00207894 16.2579C-0.0521039 12.8971 0.953514 9.60459 2.87623 6.84758C4.79895 4.09057 7.54111 2.00911 10.7136 0.898548C13.5921 -0.109091 16.6921 -0.270997 19.649 0.421652C20.1504 0.539103 20.4315 1.06087 20.285 1.55457C20.1386 2.04827 19.6201 2.32656 19.1178 2.21297C16.5375 1.62944 13.8384 1.7805 11.3297 2.65867C8.52702 3.63979 6.10447 5.47865 4.40585 7.91433C2.70723 10.35 1.81882 13.2588 1.86669 16.2279C1.91456 19.197 2.89627 22.0756 4.67252 24.4552C6.44877 26.8349 8.92934 28.5947 11.7622 29.4849C14.5951 30.3752 17.6364 30.3507 20.4546 29.4149C23.2728 28.4791 25.7246 26.6795 27.4623 24.2715C29.0176 22.1162 29.9301 19.5715 30.1044 16.9318C30.1384 16.418 30.5526 16 31.0676 16Z" stroke="#515151" stroke-width="4" mask="url(#path-3-inside-2_607_797)"/>
<mask id="path-4-inside-3_607_797" fill="white">
<path d="M24.8877 3.83283C25.1915 3.417 25.7768 3.32408 26.1743 3.65154C28.0581 5.2037 29.5621 7.16663 30.5706 9.38951C30.7833 9.85847 30.5413 10.3995 30.0607 10.5845C29.5802 10.7696 29.0434 10.5285 28.827 10.0612C27.9519 8.17088 26.6695 6.49714 25.072 5.16022C24.6771 4.82971 24.584 4.24867 24.8877 3.83283Z"/>
</mask>
<path d="M24.8877 3.83283C25.1915 3.417 25.7768 3.32408 26.1743 3.65154C28.0581 5.2037 29.5621 7.16663 30.5706 9.38951C30.7833 9.85847 30.5413 10.3995 30.0607 10.5845C29.5802 10.7696 29.0434 10.5285 28.827 10.0612C27.9519 8.17088 26.6695 6.49714 25.072 5.16022C24.6771 4.82971 24.584 4.24867 24.8877 3.83283Z" stroke="#58A786" stroke-width="4" mask="url(#path-4-inside-3_607_797)"/>
</svg>
