<svg width="28" height="28" viewBox="0 0 28 28" fill="none" xmlns="http://www.w3.org/2000/svg">
<path d="M21.1955 10C21.1955 8.14348 20.458 6.36301 19.1453 5.05025C17.8325 3.7375 16.0521 3 14.1955 3C12.339 3 10.5585 3.7375 9.24579 5.05025C7.93304 6.36301 7.19554 8.14348 7.19554 10C7.19554 13.6052 6.28609 16.0736 5.27015 17.7063C4.41319 19.0835 3.98471 19.7721 4.00042 19.9642C4.01781 20.1769 4.06287 20.258 4.23428 20.3852C4.38907 20.5 5.08689 20.5 6.48253 20.5H21.9085C23.3042 20.5 24.002 20.5 24.1568 20.3852C24.3282 20.258 24.3733 20.1769 24.3907 19.9642C24.4064 19.7721 23.9779 19.0835 23.1209 17.7063C22.105 16.0736 21.1955 13.6052 21.1955 10Z" stroke="#515151" stroke-width="2" stroke-linecap="round" stroke-linejoin="round"/>
<path d="M11.1953 24.6665C12.018 25.3926 13.0986 25.8332 14.2821 25.8332C15.4656 25.8332 16.5462 25.3926 17.3689 24.6665" stroke="#58A786" stroke-width="2" stroke-linecap="round" stroke-linejoin="round"/>
</svg>
