<svg width="18" height="18" viewBox="0 0 18 18" fill="none" xmlns="http://www.w3.org/2000/svg">
<path d="M2.25 5.85C2.25 4.58988 2.25 3.95982 2.49524 3.47852C2.71095 3.05516 3.05516 2.71095 3.47852 2.49524C3.95982 2.25 4.58988 2.25 5.85 2.25H12.15C13.4101 2.25 14.0402 2.25 14.5215 2.49524C14.9448 2.71095 15.289 3.05516 15.5048 3.47852C15.75 3.95982 15.75 4.58988 15.75 5.85V9.9C15.75 11.1601 15.75 11.7902 15.5048 12.2715C15.289 12.6948 14.9448 13.039 14.5215 13.2548C14.0402 13.5 13.4101 13.5 12.15 13.5H10.2628C9.79477 13.5 9.56075 13.5 9.33691 13.5459C9.13832 13.5867 8.94615 13.6541 8.76561 13.7463C8.56213 13.8503 8.37939 13.9965 8.01391 14.2889L6.22482 15.7201C5.91275 15.9698 5.75672 16.0946 5.6254 16.0948C5.5112 16.0949 5.40317 16.043 5.33192 15.9537C5.25 15.8511 5.25 15.6513 5.25 15.2516V13.5C4.55252 13.5 4.20378 13.5 3.91766 13.4233C3.1412 13.2153 2.53472 12.6088 2.32667 11.8323C2.25 11.5462 2.25 11.1975 2.25 10.5V5.85Z" stroke="black" stroke-width="1.5" stroke-linecap="round" stroke-linejoin="round"/>
</svg>
