<svg width="28" height="28" viewBox="0 0 28 28" fill="none" xmlns="http://www.w3.org/2000/svg">
<path d="M10.667 24.375V16.1528C10.667 15.5305 10.667 15.2194 10.776 14.9817C10.8719 14.7726 11.0248 14.6026 11.213 14.4961C11.4269 14.375 11.7069 14.375 12.267 14.375H15.067C15.627 14.375 15.9071 14.375 16.121 14.4961C16.3091 14.6026 16.4621 14.7726 16.558 14.9817C16.667 15.2194 16.667 15.5305 16.667 16.1528V24.375" stroke="#58A786" stroke-width="2" stroke-linecap="round" stroke-linejoin="round"/>
<path d="M2 11.4583L12.5467 3.54833C12.9483 3.24711 13.1491 3.09649 13.3697 3.03844C13.5644 2.98719 13.769 2.98719 13.9637 3.03844C14.1842 3.09649 14.385 3.24711 14.7867 3.54833L25.3333 11.4583M4.33334 9.70833V21.1417C4.33334 22.4485 4.33334 23.1019 4.58766 23.601C4.81136 24.04 5.16832 24.397 5.60736 24.6207C6.10649 24.875 6.75988 24.875 8.06667 24.875H19.2667C20.5735 24.875 21.2269 24.875 21.726 24.6207C22.165 24.397 22.522 24.04 22.7457 23.601C23 23.1019 23 22.4485 23 21.1417V9.70833L15.9067 4.38833C15.1034 3.78588 14.7018 3.48465 14.2607 3.36854C13.8713 3.26604 13.462 3.26604 13.0727 3.36854C12.6316 3.48465 12.2299 3.78588 11.4267 4.38833L4.33334 9.70833Z" stroke="#515151" stroke-width="2" stroke-linecap="round" stroke-linejoin="round"/>
</svg>
