<svg width="85" height="29" viewBox="0 0 85 29" fill="none" xmlns="http://www.w3.org/2000/svg">
<path d="M53.0361 23H51.6299L54.7207 8.21973L54.8232 7.70703C54.8916 7.3457 54.9258 7.09668 54.9258 6.95996C54.9258 6.77441 54.877 6.62305 54.7793 6.50586C54.6816 6.37891 54.5449 6.31543 54.3691 6.31543C54.0957 6.31543 53.7881 6.48145 53.4463 6.81348C53.1045 7.14551 52.6748 7.70215 52.1572 8.4834C51.3564 9.6748 50.4824 11.3301 49.5352 13.4492C48.793 15.1191 48.1582 16.7451 47.6309 18.3271C47.1133 19.8994 46.6885 21.457 46.3564 23H45.1406L48.5391 7.0918C48.6465 6.59375 48.7002 6.20312 48.7002 5.91992C48.7002 5.79297 48.6758 5.6709 48.627 5.55371C48.5781 5.43652 48.5098 5.34863 48.4219 5.29004C48.3438 5.23145 48.251 5.20215 48.1436 5.20215C47.6846 5.20215 47.123 5.65137 46.459 6.5498C45.7949 7.43848 45.0088 8.8252 44.1006 10.71C43.6709 11.5596 43.2559 12.4482 42.8555 13.376C42.4551 14.3037 42.0986 15.168 41.7861 15.9688C41.4736 16.7695 41.1221 17.7461 40.7314 18.8984C40.165 20.5781 39.7549 21.9453 39.501 23H38.2705L38.3145 22.7949L38.9443 20.29C39.1689 19.333 39.3643 18.4834 39.5303 17.7412C40.3018 14.2451 40.8682 11.3887 41.2295 9.17188C41.5322 7.43359 41.6836 6.17871 41.6836 5.40723C41.6836 4.84082 41.5957 4.40625 41.4199 4.10352C41.2539 3.79102 41.0195 3.63477 40.7168 3.63477C39.9746 3.63477 39.3154 4.62109 38.7393 6.59375C38.3779 7.83398 38.0996 9.17188 37.9043 10.6074L36.8057 9.88965C36.9717 8.62988 37.2451 7.49219 37.626 6.47656C38.0166 5.46094 38.4756 4.66016 39.0029 4.07422C39.54 3.47852 40.082 3.18066 40.6289 3.18066C41.2539 3.18066 41.7422 3.5127 42.0938 4.17676C42.4551 4.84082 42.6357 5.74902 42.6357 6.90137C42.6357 7.86816 42.5479 8.9668 42.3721 10.1973C42.3232 10.5586 42.167 11.4766 41.9033 12.9512L41.3174 16.1445L41.4053 15.8662C42.1084 13.9521 43.1289 11.6963 44.4668 9.09863C45.3066 7.4873 46.083 6.27148 46.7959 5.45117C47.5186 4.62109 48.1729 4.20605 48.7588 4.20605C49.1299 4.20605 49.4375 4.35254 49.6816 4.64551C49.9258 4.92871 50.0479 5.29492 50.0479 5.74414C50.0479 6.20312 49.9551 6.86719 49.7695 7.73633L48.0703 15.8516C48.1973 15.4902 48.4902 14.7969 48.9492 13.7715C50.2871 10.8027 51.4297 8.66406 52.377 7.35547C53.3242 6.03711 54.1982 5.37793 54.999 5.37793C55.3994 5.37793 55.7168 5.51953 55.9512 5.80273C56.1953 6.07617 56.3174 6.44238 56.3174 6.90137C56.3174 7.27246 56.2344 7.83398 56.0684 8.58594L53.0361 23ZM56.4346 20.1875C56.4346 19.3086 56.6689 18.4346 57.1377 17.5654C57.6162 16.6865 58.2314 15.9736 58.9834 15.4268C59.7354 14.8799 60.502 14.6064 61.2832 14.6064C62.1035 14.6064 62.7627 14.8799 63.2607 15.4268C63.7686 15.9639 64.0225 16.6621 64.0225 17.5215C64.0225 18.459 63.7881 19.3672 63.3193 20.2461C62.8604 21.125 62.25 21.8477 61.4883 22.4141C60.7363 22.9707 59.9746 23.249 59.2031 23.249C58.373 23.249 57.7041 22.9707 57.1963 22.4141C56.6885 21.8477 56.4346 21.1055 56.4346 20.1875ZM62.7041 16.9648C62.7041 16.3789 62.5576 15.8955 62.2646 15.5146C61.9814 15.1338 61.6152 14.9434 61.166 14.9434C60.7559 14.9434 60.3604 15.0752 59.9795 15.3389C59.6084 15.6025 59.2666 15.9883 58.9541 16.4961C58.6025 17.082 58.3096 17.7656 58.0752 18.5469C57.8506 19.3281 57.7383 20.0215 57.7383 20.627C57.7383 21.3496 57.8799 21.9062 58.1631 22.2969C58.4463 22.6875 58.8516 22.8828 59.3789 22.8828C60.2285 22.8828 60.9756 22.292 61.6201 21.1104C61.9521 20.5049 62.2158 19.8262 62.4111 19.0742C62.6064 18.3223 62.7041 17.6191 62.7041 16.9648ZM65.2236 20.1875C65.2236 19.3086 65.458 18.4346 65.9268 17.5654C66.4053 16.6865 67.0205 15.9736 67.7725 15.4268C68.5244 14.8799 69.291 14.6064 70.0723 14.6064C70.8926 14.6064 71.5518 14.8799 72.0498 15.4268C72.5576 15.9639 72.8115 16.6621 72.8115 17.5215C72.8115 18.459 72.5771 19.3672 72.1084 20.2461C71.6494 21.125 71.0391 21.8477 70.2773 22.4141C69.5254 22.9707 68.7637 23.249 67.9922 23.249C67.1621 23.249 66.4932 22.9707 65.9854 22.4141C65.4775 21.8477 65.2236 21.1055 65.2236 20.1875ZM71.4932 16.9648C71.4932 16.3789 71.3467 15.8955 71.0537 15.5146C70.7705 15.1338 70.4043 14.9434 69.9551 14.9434C69.5449 14.9434 69.1494 15.0752 68.7686 15.3389C68.3975 15.6025 68.0557 15.9883 67.7432 16.4961C67.3916 17.082 67.0986 17.7656 66.8643 18.5469C66.6396 19.3281 66.5273 20.0215 66.5273 20.627C66.5273 21.3496 66.6689 21.9062 66.9521 22.2969C67.2354 22.6875 67.6406 22.8828 68.168 22.8828C69.0176 22.8828 69.7646 22.292 70.4092 21.1104C70.7412 20.5049 71.0049 19.8262 71.2002 19.0742C71.3955 18.3223 71.4932 17.6191 71.4932 16.9648ZM74.1592 23.1465L75.7119 15.0312L77.1035 14.4307L75.8438 19.8066C76.6543 18.0977 77.46 16.7988 78.2607 15.9102C79.0615 15.0215 79.8281 14.5771 80.5605 14.5771C80.9219 14.5771 81.2148 14.6992 81.4395 14.9434C81.6641 15.1777 81.7764 15.4951 81.7764 15.8955C81.7764 16.1201 81.7227 16.4375 81.6152 16.8477L81.4688 17.4629L81.0293 19.25L80.8828 19.8213C80.7363 20.4072 80.6631 20.8564 80.6631 21.1689C80.6631 21.4814 80.7168 21.7354 80.8242 21.9307C80.9316 22.1162 81.0732 22.209 81.249 22.209C81.5518 22.209 82.0352 21.8477 82.6992 21.125L82.9336 21.3301L82.7871 21.4912C82.2305 22.1455 81.8203 22.5898 81.5566 22.8242C81.293 23.0488 81.0488 23.1611 80.8242 23.1611C80.5215 23.1611 80.2627 23.0098 80.0479 22.707C79.8428 22.3945 79.7402 22.0088 79.7402 21.5498C79.7402 21.2373 79.7988 20.7734 79.916 20.1582L80.4873 17.0527C80.5654 16.5645 80.6045 16.2227 80.6045 16.0273C80.6045 15.8223 80.5508 15.666 80.4434 15.5586C80.3359 15.4512 80.1895 15.3975 80.0039 15.3975C79.3301 15.3975 78.5 16.1201 77.5137 17.5654C77.0352 18.2588 76.6396 18.9473 76.3271 19.6309C76.0146 20.3047 75.6631 21.2422 75.2725 22.4434L75.1406 22.8389L74.1592 23.1465Z" fill="black"/>
<path d="M53.0361 23V24H53.8477L54.0147 23.2059L53.0361 23ZM51.6299 23L50.6511 22.7953L50.3991 24H51.6299V23ZM54.7207 8.21973L55.6996 8.42442L55.7013 8.41584L54.7207 8.21973ZM54.8232 7.70703L55.8039 7.90316L55.8058 7.89292L54.8232 7.70703ZM54.7793 6.50586L53.9867 7.11557L53.9986 7.13105L54.0111 7.14604L54.7793 6.50586ZM53.4463 6.81348L52.7495 6.0962L53.4463 6.81348ZM52.1572 8.4834L52.9872 9.04125L52.9909 9.03569L52.1572 8.4834ZM49.5352 13.4492L48.6222 13.0411L48.6213 13.0431L49.5352 13.4492ZM47.6309 18.3271L46.6822 18.0109L46.681 18.0145L47.6309 18.3271ZM46.3564 23V24H47.1641L47.3341 23.2104L46.3564 23ZM45.1406 23L44.1627 22.7911L43.9044 24H45.1406V23ZM48.5391 7.0918L47.5615 6.88096L47.5611 6.88288L48.5391 7.0918ZM48.4219 5.29004L47.8219 6.09004L47.8441 6.10669L47.8672 6.12209L48.4219 5.29004ZM46.459 6.5498L47.2601 7.1484L47.2632 7.1442L46.459 6.5498ZM44.1006 10.71L44.993 11.1613L44.9973 11.1527L45.0015 11.1441L44.1006 10.71ZM41.7861 15.9688L40.8546 15.6052L41.7861 15.9688ZM40.7314 18.8984L39.7844 18.5774L39.7839 18.5789L40.7314 18.8984ZM39.501 23V24H40.2888L40.4732 23.2341L39.501 23ZM38.2705 23L37.2927 22.7905L37.0335 24H38.2705V23ZM38.3145 22.7949L37.3446 22.5511L37.3403 22.5682L37.3367 22.5854L38.3145 22.7949ZM38.9443 20.29L39.9141 20.5339L39.9161 20.5262L39.9179 20.5185L38.9443 20.29ZM39.5303 17.7412L40.5062 17.9595L40.5068 17.9567L39.5303 17.7412ZM41.2295 9.17188L40.2443 9.00029L40.2425 9.011L41.2295 9.17188ZM41.4199 4.10352L40.5368 4.57267L40.5457 4.58933L40.5551 4.60565L41.4199 4.10352ZM38.7393 6.59375L37.7794 6.31339L37.7792 6.31404L38.7393 6.59375ZM37.9043 10.6074L37.3573 11.4446L38.6819 12.3099L38.8952 10.7422L37.9043 10.6074ZM36.8057 9.88965L35.8142 9.759L35.732 10.3827L36.2587 10.7268L36.8057 9.88965ZM37.626 6.47656L36.6926 6.11757L36.6896 6.12544L37.626 6.47656ZM39.0029 4.07422L38.2602 3.40458L38.2596 3.40525L39.0029 4.07422ZM42.0938 4.17676L41.2099 4.64468L41.2154 4.6547L42.0938 4.17676ZM42.3721 10.1973L41.3821 10.0558L41.3811 10.0633L42.3721 10.1973ZM41.9033 12.9512L42.8869 13.1316L42.8877 13.1272L41.9033 12.9512ZM41.3174 16.1445L40.3338 15.9641L42.271 16.4457L41.3174 16.1445ZM41.4053 15.8662L40.4666 15.5214L40.4586 15.5431L40.4517 15.5651L41.4053 15.8662ZM44.4668 9.09863L43.58 8.63643L43.5778 8.64076L44.4668 9.09863ZM46.7959 5.45117L46.0417 4.79455L46.0411 4.79522L46.7959 5.45117ZM49.6816 4.64551L48.9134 5.28569L48.9188 5.29211L48.9242 5.29845L49.6816 4.64551ZM49.7695 7.73633L48.7916 7.52755L48.7908 7.53139L49.7695 7.73633ZM48.0703 15.8516L47.0915 15.6466L49.0138 16.183L48.0703 15.8516ZM48.9492 13.7715L48.0375 13.3606L48.0365 13.3629L48.9492 13.7715ZM52.377 7.35547L53.187 7.94185L53.1891 7.93898L52.377 7.35547ZM55.9512 5.80273L55.1808 6.4403L55.1927 6.45476L55.2052 6.46875L55.9512 5.80273ZM56.0684 8.58594L55.0918 8.37034L55.0898 8.38008L56.0684 8.58594ZM53.0361 22H51.6299V24H53.0361V22ZM52.6087 23.2047L55.6995 8.42442L53.7419 8.01504L50.6511 22.7953L52.6087 23.2047ZM55.7013 8.41584L55.8038 7.90315L53.8427 7.51092L53.7401 8.02361L55.7013 8.41584ZM55.8058 7.89292C55.8726 7.53968 55.9258 7.20335 55.9258 6.95996H53.9258C53.9258 6.95986 53.9245 7.00318 53.9094 7.11329C53.8954 7.2154 53.873 7.35022 53.8407 7.52114L55.8058 7.89292ZM55.9258 6.95996C55.9258 6.59301 55.8254 6.19918 55.5475 5.86567L54.0111 7.14604C53.9745 7.10216 53.9506 7.05509 53.9375 7.01428C53.925 6.97583 53.9258 6.95446 53.9258 6.95996H55.9258ZM55.5719 5.89615C55.2647 5.49679 54.8206 5.31543 54.3691 5.31543V7.31543C54.3356 7.31543 54.2662 7.30893 54.1824 7.27005C54.0957 7.22979 54.0296 7.17143 53.9867 7.11557L55.5719 5.89615ZM54.3691 5.31543C53.6996 5.31543 53.15 5.70715 52.7495 6.0962L54.1431 7.53076C54.2701 7.40739 54.3589 7.34661 54.4083 7.31996C54.4558 7.29432 54.4381 7.31543 54.3691 7.31543V5.31543ZM52.7495 6.0962C52.328 6.50562 51.8505 7.13575 51.3236 7.93111L52.9909 9.03569C53.4991 8.26854 53.8809 7.78539 54.1431 7.53076L52.7495 6.0962ZM51.3273 7.92556C50.4813 9.18426 49.5804 10.8975 48.6222 13.0411L50.4481 13.8573C51.3844 11.7627 52.2316 10.1653 52.9872 9.04123L51.3273 7.92556ZM48.6213 13.0431C47.8673 14.7396 47.2206 16.3956 46.6822 18.0109L48.5795 18.6434C49.0958 17.0946 49.7186 15.4986 50.449 13.8554L48.6213 13.0431ZM46.681 18.0145C46.1529 19.6187 45.7186 21.2105 45.3788 22.7896L47.3341 23.2104C47.6583 21.7036 48.0737 20.1801 48.5807 18.6398L46.681 18.0145ZM46.3564 22H45.1406V24H46.3564V22ZM46.1186 23.2089L49.517 7.30071L47.5611 6.88288L44.1627 22.7911L46.1186 23.2089ZM49.5166 7.30263C49.6291 6.78087 49.7002 6.30897 49.7002 5.91992H47.7002C47.7002 6.09728 47.6638 6.40663 47.5615 6.88096L49.5166 7.30263ZM49.7002 5.91992C49.7002 5.66094 49.6496 5.40815 49.55 5.1691L47.7039 5.93833C47.7035 5.93734 47.7023 5.93408 47.7013 5.92927C47.7003 5.92446 47.7002 5.92099 47.7002 5.91992H49.7002ZM49.55 5.1691C49.4408 4.90698 49.2594 4.64655 48.9766 4.45799L47.8672 6.12209C47.7601 6.05071 47.7154 5.96606 47.7039 5.93833L49.55 5.1691ZM49.0219 4.49004C48.7532 4.28856 48.4445 4.20215 48.1436 4.20215V6.20215C48.1057 6.20215 48.0532 6.19684 47.9926 6.1777C47.931 6.15825 47.8727 6.12817 47.8219 6.09004L49.0219 4.49004ZM48.1436 4.20215C47.5899 4.20215 47.117 4.46741 46.7535 4.75819C46.3786 5.05811 46.0133 5.47042 45.6548 5.95541L47.2632 7.1442C47.5687 6.73075 47.8162 6.46924 48.0029 6.31993C48.2009 6.1615 48.2382 6.20215 48.1436 6.20215V4.20215ZM45.6579 5.95121C44.9353 6.91832 44.1159 8.37447 43.1997 10.2759L45.0015 11.1441C45.9016 9.27592 46.6546 7.95863 47.26 7.1484L45.6579 5.95121ZM43.2082 10.2586C42.7688 11.1274 42.3453 12.0345 41.9373 12.9797L43.7736 13.7722C44.1665 12.862 44.5729 11.9917 44.993 11.1613L43.2082 10.2586ZM41.9373 12.9797C41.533 13.9165 41.172 14.7917 40.8546 15.6052L42.7177 16.3323C43.0253 15.5442 43.3771 14.691 43.7736 13.7722L41.9373 12.9797ZM40.8546 15.6052C40.5348 16.4245 40.178 17.4161 39.7844 18.5774L41.6785 19.2195C42.0661 18.0761 42.4124 17.1146 42.7177 16.3323L40.8546 15.6052ZM39.7839 18.5789C39.2131 20.2715 38.7925 21.6702 38.5288 22.7659L40.4732 23.2341C40.7172 22.2204 41.117 20.8847 41.679 19.218L39.7839 18.5789ZM39.501 22H38.2705V24H39.501V22ZM39.2483 23.2095L39.2923 23.0045L37.3367 22.5854L37.2927 22.7905L39.2483 23.2095ZM39.2843 23.0388L39.9141 20.5339L37.9745 20.0462L37.3446 22.5511L39.2843 23.0388ZM39.9179 20.5185C40.1431 19.559 40.3392 18.7059 40.5062 17.9595L38.5544 17.5229C38.3893 18.2609 38.1948 19.107 37.9708 20.0616L39.9179 20.5185ZM40.5068 17.9567C41.2802 14.4517 41.8509 11.5753 42.2165 9.33275L40.2425 9.011C39.8854 11.2021 39.3233 14.0385 38.5538 17.5257L40.5068 17.9567ZM42.2147 9.34345C42.518 7.60183 42.6836 6.27263 42.6836 5.40723H40.6836C40.6836 6.08479 40.5465 7.26536 40.2443 9.0003L42.2147 9.34345ZM42.6836 5.40723C42.6836 4.76237 42.5879 4.12346 42.2847 3.60138L40.5551 4.60565C40.6036 4.68904 40.6836 4.91927 40.6836 5.40723H42.6836ZM42.303 3.63436C41.9989 3.06193 41.4593 2.63477 40.7168 2.63477V4.63477C40.7057 4.63477 40.6825 4.63321 40.6517 4.62426C40.6204 4.61514 40.5905 4.60102 40.5649 4.584C40.5134 4.54962 40.512 4.52595 40.5368 4.57267L42.303 3.63436ZM40.7168 2.63477C39.8483 2.63477 39.2351 3.21921 38.8344 3.81886C38.4215 4.43668 38.0784 5.28972 37.7794 6.31339L39.6992 6.87411C39.9763 5.92513 40.2509 5.29867 40.4972 4.93016C40.7556 4.54348 40.8432 4.63477 40.7168 4.63477V2.63477ZM37.7792 6.31404C37.4025 7.60705 37.1146 8.99387 36.9134 10.4726L38.8952 10.7422C39.0846 9.34988 39.3534 8.06092 39.6993 6.87346L37.7792 6.31404ZM38.4512 9.77026L37.3526 9.05248L36.2587 10.7268L37.3573 11.4446L38.4512 9.77026ZM37.7971 10.0203C37.9548 8.82339 38.2122 7.76125 38.5623 6.82769L36.6896 6.12544C36.278 7.22312 35.9885 8.43637 35.8142 9.759L37.7971 10.0203ZM38.5593 6.83554C38.9216 5.89363 39.3253 5.21089 39.7462 4.74318L38.2596 3.40525C37.6259 4.10942 37.1116 5.02824 36.6926 6.11758L38.5593 6.83554ZM39.7456 4.74386C40.1828 4.25899 40.476 4.18066 40.6289 4.18066V2.18066C39.688 2.18066 38.8973 2.69804 38.2602 3.40458L39.7456 4.74386ZM40.6289 4.18066C40.8015 4.18066 40.9897 4.22854 41.21 4.64465L42.9775 3.70887C42.4947 2.79685 41.7063 2.18066 40.6289 2.18066V4.18066ZM41.2154 4.6547C41.4658 5.11495 41.6357 5.83585 41.6357 6.90137H43.6357C43.6357 5.66219 43.4444 4.56669 42.9721 3.69881L41.2154 4.6547ZM41.6357 6.90137C41.6357 7.80972 41.553 8.85973 41.3821 10.0558L43.362 10.3387C43.5427 9.07386 43.6357 7.92661 43.6357 6.90137H41.6357ZM41.3811 10.0633C41.3358 10.3987 41.1841 11.2923 40.9189 12.7752L42.8877 13.1272C43.1499 11.6608 43.3107 10.7185 43.3631 10.3312L41.3811 10.0633ZM40.9197 12.7707L40.3338 15.9641L42.301 16.325L42.8869 13.1316L40.9197 12.7707ZM42.271 16.4457L42.3589 16.1673L40.4517 15.5651L40.3638 15.8434L42.271 16.4457ZM42.3439 16.211C43.0282 14.3482 44.0295 12.1318 45.3558 9.55651L43.5778 8.64076C42.2284 11.2608 41.1886 13.5561 40.4666 15.5214L42.3439 16.211ZM45.3536 9.56083C46.1779 7.97928 46.9121 6.84197 47.5507 6.10713L46.0411 4.79522C45.2539 5.701 44.4354 6.99533 43.58 8.63643L45.3536 9.56083ZM47.5501 6.10779C48.2353 5.32073 48.6331 5.20605 48.7588 5.20605V3.20605C47.7126 3.20605 46.8018 3.92146 46.0417 4.79455L47.5501 6.10779ZM48.7588 5.20605C48.809 5.20605 48.83 5.21504 48.8379 5.21878C48.8465 5.22288 48.8727 5.23687 48.9134 5.28569L50.4499 4.00532C50.0218 3.49164 49.436 3.20605 48.7588 3.20605V5.20605ZM48.9242 5.29845C48.9818 5.36518 49.0479 5.48408 49.0479 5.74414H51.0479C51.0479 5.10577 50.8698 4.49224 50.4391 3.99257L48.9242 5.29845ZM49.0479 5.74414C49.0479 6.09504 48.9734 6.6759 48.7916 7.52755L50.7475 7.94511C50.9368 7.05848 51.0479 6.31121 51.0479 5.74414H49.0479ZM48.7908 7.53139L47.0915 15.6466L49.0491 16.0565L50.7483 7.94127L48.7908 7.53139ZM49.0138 16.183C49.1247 15.8672 49.4004 15.2111 49.862 14.18L48.0365 13.3629C47.5801 14.3826 47.2698 15.1133 47.1269 15.5201L49.0138 16.183ZM49.8609 14.1823C51.193 11.2264 52.3019 9.16455 53.187 7.94184L51.5669 6.7691C50.5575 8.16358 49.3812 10.3791 48.0375 13.3606L49.8609 14.1823ZM53.1891 7.93898C53.6294 7.3261 54.0172 6.918 54.3451 6.67071C54.6713 6.42465 54.8832 6.37793 54.999 6.37793V4.37793C54.3141 4.37793 53.6886 4.6608 53.1408 5.07392C52.5946 5.48581 52.0717 6.06648 51.5648 6.77196L53.1891 7.93898ZM54.999 6.37793C55.0801 6.37793 55.1175 6.39183 55.1299 6.39736C55.1399 6.40182 55.1559 6.41028 55.1808 6.4403L56.7216 5.16517C56.2788 4.6301 55.6672 4.37793 54.999 4.37793V6.37793ZM55.2052 6.46875C55.2475 6.51605 55.3174 6.62377 55.3174 6.90137H57.3174C57.3174 6.261 57.1432 5.63629 56.6971 5.13672L55.2052 6.46875ZM55.3174 6.90137C55.3174 7.15778 55.2552 7.63056 55.0919 8.37035L57.0448 8.80153C57.2135 8.03741 57.3174 7.38714 57.3174 6.90137H55.3174ZM55.0898 8.38008L52.0576 22.7941L54.0147 23.2059L57.0469 8.7918L55.0898 8.38008ZM57.1377 17.5654L56.2594 17.0873L56.2575 17.0907L57.1377 17.5654ZM63.2607 15.4268L62.5214 16.1001L62.5277 16.107L62.5341 16.1138L63.2607 15.4268ZM63.3193 20.2461L62.4369 19.7755L62.4329 19.7832L63.3193 20.2461ZM61.4883 22.4141L62.0833 23.2178L62.085 23.2165L61.4883 22.4141ZM57.1963 22.4141L56.4517 23.0816L56.4575 23.088L57.1963 22.4141ZM62.2646 15.5146L61.4622 16.1114L61.4671 16.1179L61.472 16.1244L62.2646 15.5146ZM59.9795 15.3389L59.4102 14.5166L59.4003 14.5237L59.9795 15.3389ZM58.9541 16.4961L58.1024 15.972L58.0966 15.9816L58.9541 16.4961ZM58.0752 18.5469L57.1173 18.2595L57.1141 18.2706L58.0752 18.5469ZM61.6201 21.1104L60.7433 20.6295L60.7422 20.6315L61.6201 21.1104ZM57.4346 20.1875C57.4346 19.4939 57.6179 18.7817 58.0178 18.0401L56.2575 17.0907C55.72 18.0874 55.4346 19.1233 55.4346 20.1875H57.4346ZM58.016 18.0436C58.429 17.2849 58.9486 16.6885 59.5716 16.2355L58.3952 14.618C57.5143 15.2587 56.8034 16.0881 56.2594 17.0873L58.016 18.0436ZM59.5716 16.2355C60.186 15.7886 60.7511 15.6064 61.2832 15.6064V13.6064C60.2528 13.6064 59.2847 13.9711 58.3952 14.618L59.5716 16.2355ZM61.2832 15.6064C61.8562 15.6064 62.2347 15.7853 62.5214 16.1001L64.0001 14.7534C63.2907 13.9745 62.3508 13.6064 61.2832 13.6064V15.6064ZM62.5341 16.1138C62.838 16.4352 63.0225 16.8731 63.0225 17.5215H65.0225C65.0225 16.4511 64.6991 15.4925 63.9874 14.7397L62.5341 16.1138ZM63.0225 17.5215C63.0225 18.2846 62.8335 19.0321 62.437 19.7755L64.2017 20.7167C64.7427 19.7023 65.0225 18.6334 65.0225 17.5215H63.0225ZM62.4329 19.7832C62.0405 20.5346 61.527 21.1391 60.8916 21.6116L62.085 23.2165C62.973 22.5562 63.6802 21.7154 64.2057 20.709L62.4329 19.7832ZM60.8933 21.6103C60.2761 22.0672 59.718 22.249 59.2031 22.249V24.249C60.2312 24.249 61.1966 23.8742 62.0833 23.2178L60.8933 21.6103ZM59.2031 22.249C58.6223 22.249 58.2329 22.0666 57.9351 21.7401L56.4575 23.088C57.1753 23.8748 58.1238 24.249 59.2031 24.249V22.249ZM57.9409 21.7465C57.6301 21.3999 57.4346 20.9126 57.4346 20.1875H55.4346C55.4346 21.2983 55.7469 22.2955 56.4517 23.0816L57.9409 21.7465ZM63.7041 16.9648C63.7041 16.208 63.5121 15.4963 63.0573 14.9049L61.472 16.1244C61.6031 16.2947 61.7041 16.5498 61.7041 16.9648H63.7041ZM63.0671 14.9179C62.6077 14.3001 61.9518 13.9434 61.166 13.9434V15.9434C61.2787 15.9434 61.3552 15.9675 61.4622 16.1114L63.0671 14.9179ZM61.166 13.9434C60.5268 13.9434 59.9359 14.1528 59.4103 14.5167L60.5487 16.1611C60.7848 15.9976 60.985 15.9434 61.166 15.9434V13.9434ZM59.4003 14.5237C58.8915 14.8852 58.4645 15.3836 58.1024 15.972L59.8058 17.0202C60.0687 16.593 60.3253 16.3199 60.5587 16.154L59.4003 14.5237ZM58.0966 15.9816C57.695 16.651 57.3712 17.4135 57.1174 18.2595L59.033 18.8342C59.248 18.1177 59.5101 17.5131 59.8116 17.0106L58.0966 15.9816ZM57.1141 18.2706C56.8719 19.113 56.7383 19.9023 56.7383 20.627H58.7383C58.7383 20.1407 58.8293 19.5432 59.0363 18.8232L57.1141 18.2706ZM56.7383 20.627C56.7383 21.461 56.8987 22.2566 57.3535 22.8838L58.9727 21.7099C58.861 21.5559 58.7383 21.2382 58.7383 20.627H56.7383ZM57.3535 22.8838C57.8442 23.5608 58.5658 23.8828 59.3789 23.8828V21.8828C59.1374 21.8828 59.0483 21.8142 58.9727 21.7099L57.3535 22.8838ZM59.3789 23.8828C60.7775 23.8828 61.7881 22.8907 62.498 21.5892L60.7422 20.6315C60.163 21.6933 59.6795 21.8828 59.3789 21.8828V23.8828ZM62.4969 21.5912C62.8733 20.9049 63.1655 20.1477 63.379 19.3256L61.4432 18.8228C61.2662 19.5046 61.031 20.1048 60.7433 20.6295L62.4969 21.5912ZM63.379 19.3256C63.5918 18.5064 63.7041 17.718 63.7041 16.9648H61.7041C61.7041 17.5202 61.6211 18.1381 61.4432 18.8228L63.379 19.3256ZM65.9268 17.5654L65.0485 17.0873L65.0466 17.0907L65.9268 17.5654ZM72.0498 15.4268L71.3105 16.1001L71.3167 16.107L71.3232 16.1138L72.0498 15.4268ZM72.1084 20.2461L71.226 19.7755L71.222 19.7832L72.1084 20.2461ZM70.2773 22.4141L70.8723 23.2178L70.874 23.2165L70.2773 22.4141ZM65.9854 22.4141L65.2408 23.0816L65.2466 23.088L65.9854 22.4141ZM71.0537 15.5146L70.2512 16.1114L70.2561 16.1179L70.2611 16.1244L71.0537 15.5146ZM68.7686 15.3389L68.1993 14.5166L68.1893 14.5237L68.7686 15.3389ZM67.7432 16.4961L66.8915 15.972L66.8857 15.9816L67.7432 16.4961ZM66.8643 18.5469L65.9064 18.2595L65.9032 18.2706L66.8643 18.5469ZM70.4092 21.1104L69.5324 20.6295L69.5313 20.6315L70.4092 21.1104ZM66.2236 20.1875C66.2236 19.4939 66.407 18.7817 66.8069 18.0401L65.0466 17.0907C64.5091 18.0874 64.2236 19.1233 64.2236 20.1875H66.2236ZM66.805 18.0436C67.2181 17.2849 67.7377 16.6885 68.3606 16.2355L67.1843 14.618C66.3033 15.2587 65.5925 16.0881 65.0485 17.0873L66.805 18.0436ZM68.3606 16.2355C68.9751 15.7886 69.5402 15.6064 70.0723 15.6064V13.6064C69.0418 13.6064 68.0738 13.9711 67.1843 14.618L68.3606 16.2355ZM70.0723 15.6064C70.6453 15.6064 71.0237 15.7853 71.3105 16.1001L72.7891 14.7534C72.0798 13.9745 71.1399 13.6064 70.0723 13.6064V15.6064ZM71.3232 16.1138C71.627 16.4352 71.8115 16.8731 71.8115 17.5215H73.8115C73.8115 16.4511 73.4882 15.4925 72.7765 14.7397L71.3232 16.1138ZM71.8115 17.5215C71.8115 18.2846 71.6225 19.0321 71.226 19.7755L72.9908 20.7167C73.5318 19.7023 73.8115 18.6334 73.8115 17.5215H71.8115ZM71.222 19.7832C70.8296 20.5346 70.316 21.1391 69.6806 21.6116L70.874 23.2165C71.7621 22.5562 72.4693 21.7154 72.9948 20.709L71.222 19.7832ZM69.6824 21.6103C69.0651 22.0672 68.5071 22.249 67.9922 22.249V24.249C69.0203 24.249 69.9857 23.8742 70.8723 23.2178L69.6824 21.6103ZM67.9922 22.249C67.4114 22.249 67.022 22.0666 66.7241 21.7401L65.2466 23.088C65.9643 23.8748 66.9128 24.249 67.9922 24.249V22.249ZM66.7299 21.7465C66.4191 21.3999 66.2236 20.9126 66.2236 20.1875H64.2236C64.2236 21.2983 64.536 22.2955 65.2408 23.0816L66.7299 21.7465ZM72.4932 16.9648C72.4932 16.208 72.3012 15.4963 71.8463 14.9049L70.2611 16.1244C70.3922 16.2947 70.4932 16.5498 70.4932 16.9648H72.4932ZM71.8562 14.9179C71.3968 14.3001 70.7408 13.9434 69.9551 13.9434V15.9434C70.0678 15.9434 70.1443 15.9675 70.2512 16.1114L71.8562 14.9179ZM69.9551 13.9434C69.3158 13.9434 68.725 14.1528 68.1993 14.5167L69.3378 16.1611C69.5738 15.9976 69.774 15.9434 69.9551 15.9434V13.9434ZM68.1893 14.5237C67.6806 14.8852 67.2536 15.3836 66.8915 15.972L68.5948 17.0202C68.8577 16.593 69.1143 16.3199 69.3478 16.154L68.1893 14.5237ZM66.8857 15.9816C66.4841 16.651 66.1602 17.4135 65.9064 18.2595L67.8221 18.8342C68.037 18.1177 68.2991 17.5131 68.6007 17.0106L66.8857 15.9816ZM65.9032 18.2706C65.661 19.113 65.5273 19.9023 65.5273 20.627H67.5273C67.5273 20.1407 67.6183 19.5432 67.8253 18.8232L65.9032 18.2706ZM65.5273 20.627C65.5273 21.461 65.6878 22.2566 66.1425 22.8838L67.7618 21.7099C67.6501 21.5559 67.5273 21.2382 67.5273 20.627H65.5273ZM66.1425 22.8838C66.6333 23.5608 67.3548 23.8828 68.168 23.8828V21.8828C67.9264 21.8828 67.8374 21.8142 67.7618 21.7099L66.1425 22.8838ZM68.168 23.8828C69.5666 23.8828 70.5772 22.8907 71.2871 21.5892L69.5313 20.6315C68.9521 21.6933 68.4686 21.8828 68.168 21.8828V23.8828ZM71.286 21.5912C71.6623 20.9049 71.9545 20.1477 72.1681 19.3256L70.2323 18.8228C70.0552 19.5046 69.8201 20.1048 69.5324 20.6295L71.286 21.5912ZM72.1681 19.3256C72.3809 18.5064 72.4932 17.718 72.4932 16.9648H70.4932C70.4932 17.5202 70.4102 18.1381 70.2323 18.8228L72.1681 19.3256ZM74.1592 23.1465L73.177 22.9586L72.8628 24.6008L74.4583 24.1007L74.1592 23.1465ZM75.7119 15.0312L75.3157 14.1131L74.8293 14.323L74.7297 14.8433L75.7119 15.0312ZM77.1035 14.4307L78.0771 14.6588L78.5301 12.7258L76.7073 13.5125L77.1035 14.4307ZM75.8438 19.8066L74.8701 19.5785L76.7473 20.2352L75.8438 19.8066ZM78.2607 15.9102L77.5179 15.2407L78.2607 15.9102ZM81.4395 14.9434L80.7035 15.6204L80.7104 15.6279L80.7175 15.6353L81.4395 14.9434ZM81.6152 16.8477L80.6479 16.5943L80.645 16.6051L80.6424 16.616L81.6152 16.8477ZM81.4688 17.4629L82.4398 17.7017L82.4416 17.6945L81.4688 17.4629ZM81.0293 19.25L81.998 19.4984L82.0004 19.4888L81.0293 19.25ZM80.8828 19.8213L79.9141 19.5729L79.9127 19.5788L80.8828 19.8213ZM80.8242 21.9307L79.948 22.4126L79.9533 22.4222L79.9588 22.4317L80.8242 21.9307ZM82.6992 21.125L83.3577 20.3724L82.6232 19.7298L81.9629 20.4484L82.6992 21.125ZM82.9336 21.3301L83.6735 22.0028L84.3591 21.2486L83.5921 20.5775L82.9336 21.3301ZM82.7871 21.4912L82.0472 20.8185L82.0361 20.8307L82.0255 20.8432L82.7871 21.4912ZM81.5566 22.8242L82.2051 23.5855L82.2131 23.5786L82.221 23.5716L81.5566 22.8242ZM80.0479 22.707L79.2118 23.2557L79.2218 23.2709L79.2323 23.2858L80.0479 22.707ZM79.916 20.1582L80.8984 20.3453L80.8995 20.3391L79.916 20.1582ZM80.4873 17.0527L81.4708 17.2337L81.4729 17.2222L81.4747 17.2107L80.4873 17.0527ZM80.4434 15.5586L79.7363 16.2657L80.4434 15.5586ZM77.5137 17.5654L78.3367 18.1334L78.3397 18.1291L77.5137 17.5654ZM76.3271 19.6309L77.2344 20.0516L77.2366 20.0466L76.3271 19.6309ZM75.2725 22.4434L76.2212 22.7596L76.2234 22.7526L75.2725 22.4434ZM75.1406 22.8389L75.4397 23.7931L75.9276 23.6402L76.0893 23.1551L75.1406 22.8389ZM75.1414 23.3344L76.6941 15.2192L74.7297 14.8433L73.177 22.9586L75.1414 23.3344ZM76.1082 15.9494L77.4998 15.3488L76.7073 13.5125L75.3157 14.1131L76.1082 15.9494ZM76.1299 14.2025L74.8701 19.5785L76.8174 20.0348L78.0771 14.6588L76.1299 14.2025ZM76.7473 20.2352C77.5374 18.5693 78.2942 17.3669 79.0036 16.5796L77.5179 15.2407C76.6258 16.2307 75.7712 17.6261 74.9402 19.3781L76.7473 20.2352ZM79.0036 16.5796C79.7312 15.7721 80.2481 15.5771 80.5605 15.5771V13.5771C79.4082 13.5771 78.3918 14.2708 77.5179 15.2407L79.0036 16.5796ZM80.5605 15.5771C80.6274 15.5771 80.6578 15.5881 80.6667 15.5918C80.6736 15.5947 80.6846 15.5999 80.7035 15.6204L82.1754 14.2663C81.7433 13.7967 81.1737 13.5771 80.5605 13.5771V15.5771ZM80.7175 15.6353C80.7241 15.6422 80.7764 15.6895 80.7764 15.8955H82.7764C82.7764 15.3007 82.604 14.7132 82.1614 14.2515L80.7175 15.6353ZM80.7764 15.8955C80.7764 15.9896 80.7492 16.2075 80.6479 16.5943L82.5826 17.101C82.6961 16.6675 82.7764 16.2506 82.7764 15.8955H80.7764ZM80.6424 16.616L80.4959 17.2313L82.4416 17.6945L82.588 17.0793L80.6424 16.616ZM80.4977 17.2241L80.0582 19.0112L82.0004 19.4888L82.4398 17.7017L80.4977 17.2241ZM80.0606 19.0016L79.9142 19.5729L81.8515 20.0697L81.998 19.4984L80.0606 19.0016ZM79.9127 19.5788C79.7611 20.1849 79.6631 20.7305 79.6631 21.1689H81.6631C81.6631 20.9824 81.7115 20.6295 81.853 20.0638L79.9127 19.5788ZM79.6631 21.1689C79.6631 21.5859 79.7333 22.0222 79.948 22.4126L81.7004 21.4487C81.7011 21.45 81.6915 21.433 81.6817 21.3868C81.6718 21.34 81.6631 21.2692 81.6631 21.1689H79.6631ZM79.9588 22.4317C80.1989 22.8464 80.6331 23.209 81.249 23.209V21.209C81.3479 21.209 81.4605 21.2384 81.559 21.3029C81.6488 21.3618 81.6855 21.4224 81.6896 21.4296L79.9588 22.4317ZM81.249 23.209C81.7448 23.209 82.1666 22.9413 82.4373 22.739C82.7496 22.5055 83.0841 22.1841 83.4355 21.8016L81.9629 20.4484C81.6503 20.7886 81.411 21.0091 81.2399 21.137C81.1552 21.2004 81.1071 21.2258 81.0923 21.2326C81.0729 21.2415 81.1325 21.209 81.249 21.209V23.209ZM82.0407 21.8776L82.2751 22.0827L83.5921 20.5775L83.3577 20.3724L82.0407 21.8776ZM82.1937 20.6574L82.0472 20.8185L83.5271 22.1639L83.6735 22.0028L82.1937 20.6574ZM82.0255 20.8432C81.4684 21.498 81.0982 21.8937 80.8923 22.0768L82.221 23.5716C82.5424 23.286 82.9925 22.793 83.5488 22.1392L82.0255 20.8432ZM80.9082 22.063C80.8271 22.132 80.7767 22.1597 80.7579 22.1684C80.7415 22.1759 80.7667 22.1611 80.8242 22.1611V24.1611C81.3859 24.1611 81.8542 23.8844 82.2051 23.5855L80.9082 22.063ZM80.8242 22.1611C80.8328 22.1611 80.8476 22.1623 80.8657 22.1672C80.8838 22.1721 80.8984 22.1788 80.908 22.1844C80.9267 22.1954 80.9077 22.1907 80.8634 22.1283L79.2323 23.2858C79.5869 23.7854 80.1228 24.1611 80.8242 24.1611V22.1611ZM80.8839 22.1584C80.8079 22.0426 80.7402 21.8585 80.7402 21.5498H78.7402C78.7402 22.159 78.8776 22.7465 79.2118 23.2557L80.8839 22.1584ZM80.7402 21.5498C80.7402 21.3353 80.7837 20.9473 80.8984 20.3453L78.9337 19.9711C78.814 20.5996 78.7402 21.1393 78.7402 21.5498H80.7402ZM80.8995 20.3391L81.4708 17.2337L79.5038 16.8718L78.9325 19.9773L80.8995 20.3391ZM81.4747 17.2107C81.5524 16.7256 81.6045 16.3117 81.6045 16.0273H79.6045C79.6045 16.1336 79.5785 16.4033 79.4999 16.8947L81.4747 17.2107ZM81.6045 16.0273C81.6045 15.6525 81.5036 15.2046 81.1505 14.8515L79.7363 16.2657C79.6732 16.2027 79.6367 16.1343 79.6185 16.0814C79.6019 16.0332 79.6045 16.0098 79.6045 16.0273H81.6045ZM81.1505 14.8515C80.8155 14.5165 80.3922 14.3975 80.0039 14.3975V16.3975C80.0009 16.3975 79.9644 16.397 79.9087 16.3766C79.8494 16.3549 79.788 16.3175 79.7363 16.2657L81.1505 14.8515ZM80.0039 14.3975C79.3133 14.3975 78.7086 14.7593 78.2194 15.1852C77.7137 15.6255 77.2042 16.2448 76.6877 17.0017L78.3397 18.1291C78.8094 17.4407 79.2082 16.9761 79.5326 16.6937C79.8734 16.397 80.0207 16.3975 80.0039 16.3975V14.3975ZM76.6906 16.9974C76.1828 17.7332 75.7572 18.4724 75.4177 19.2151L77.2366 20.0466C77.5221 19.4221 77.8875 18.7843 78.3367 18.1334L76.6906 16.9974ZM75.42 19.2101C75.083 19.9366 74.7172 20.9173 74.3215 22.1341L76.2234 22.7526C76.609 21.5671 76.9463 20.6728 77.2343 20.0516L75.42 19.2101ZM74.3238 22.1271L74.1919 22.5226L76.0893 23.1551L76.2211 22.7596L74.3238 22.1271ZM74.8415 21.8846L73.8601 22.1923L74.4583 24.1007L75.4397 23.7931L74.8415 21.8846Z" fill="black"/>
<path d="M27 15.6701C25.275 18.6961 22.0191 20.7362 18.2868 20.7362C12.7514 20.7362 8.26414 16.2489 8.26414 10.7136C8.26414 6.98097 10.3046 3.72492 13.3309 2C6.97341 2.60279 2 7.95648 2 14.4718C2 21.3909 7.6091 27 14.5283 27C21.0433 27 26.3967 22.0271 27 15.6701Z" stroke="#58A786" stroke-width="3" stroke-linecap="round" stroke-linejoin="round"/>
<path d="M23.0879 10.1161C23.7546 10.501 23.7546 11.4633 23.0879 11.8482L16.1925 15.8292C15.5259 16.2141 14.6925 15.733 14.6925 14.9632L14.6925 7.00112C14.6925 6.23132 15.5259 5.7502 16.1925 6.1351L23.0879 10.1161Z" fill="#67AC9F"/>
</svg>
