<svg width="84" height="27" viewBox="0 0 84 27" fill="none" xmlns="http://www.w3.org/2000/svg">
<path d="M48.0361 22H46.6299L49.7207 7.21973L49.8232 6.70703C49.8916 6.3457 49.9258 6.09668 49.9258 5.95996C49.9258 5.77441 49.877 5.62305 49.7793 5.50586C49.6816 5.37891 49.5449 5.31543 49.3691 5.31543C49.0957 5.31543 48.7881 5.48145 48.4463 5.81348C48.1045 6.14551 47.6748 6.70215 47.1572 7.4834C46.3564 8.6748 45.4824 10.3301 44.5352 12.4492C43.793 14.1191 43.1582 15.7451 42.6309 17.3271C42.1133 18.8994 41.6885 20.457 41.3564 22H40.1406L43.5391 6.0918C43.6465 5.59375 43.7002 5.20312 43.7002 4.91992C43.7002 4.79297 43.6758 4.6709 43.627 4.55371C43.5781 4.43652 43.5098 4.34863 43.4219 4.29004C43.3438 4.23145 43.251 4.20215 43.1436 4.20215C42.6846 4.20215 42.123 4.65137 41.459 5.5498C40.7949 6.43848 40.0088 7.8252 39.1006 9.70996C38.6709 10.5596 38.2559 11.4482 37.8555 12.376C37.4551 13.3037 37.0986 14.168 36.7861 14.9688C36.4736 15.7695 36.1221 16.7461 35.7314 17.8984C35.165 19.5781 34.7549 20.9453 34.501 22H33.2705L33.3145 21.7949L33.9443 19.29C34.1689 18.333 34.3643 17.4834 34.5303 16.7412C35.3018 13.2451 35.8682 10.3887 36.2295 8.17188C36.5322 6.43359 36.6836 5.17871 36.6836 4.40723C36.6836 3.84082 36.5957 3.40625 36.4199 3.10352C36.2539 2.79102 36.0195 2.63477 35.7168 2.63477C34.9746 2.63477 34.3154 3.62109 33.7393 5.59375C33.3779 6.83398 33.0996 8.17188 32.9043 9.60742L31.8057 8.88965C31.9717 7.62988 32.2451 6.49219 32.626 5.47656C33.0166 4.46094 33.4756 3.66016 34.0029 3.07422C34.54 2.47852 35.082 2.18066 35.6289 2.18066C36.2539 2.18066 36.7422 2.5127 37.0938 3.17676C37.4551 3.84082 37.6357 4.74902 37.6357 5.90137C37.6357 6.86816 37.5479 7.9668 37.3721 9.19727C37.3232 9.55859 37.167 10.4766 36.9033 11.9512L36.3174 15.1445L36.4053 14.8662C37.1084 12.9521 38.1289 10.6963 39.4668 8.09863C40.3066 6.4873 41.083 5.27148 41.7959 4.45117C42.5186 3.62109 43.1729 3.20605 43.7588 3.20605C44.1299 3.20605 44.4375 3.35254 44.6816 3.64551C44.9258 3.92871 45.0479 4.29492 45.0479 4.74414C45.0479 5.20312 44.9551 5.86719 44.7695 6.73633L43.0703 14.8516C43.1973 14.4902 43.4902 13.7969 43.9492 12.7715C45.2871 9.80273 46.4297 7.66406 47.377 6.35547C48.3242 5.03711 49.1982 4.37793 49.999 4.37793C50.3994 4.37793 50.7168 4.51953 50.9512 4.80273C51.1953 5.07617 51.3174 5.44238 51.3174 5.90137C51.3174 6.27246 51.2344 6.83398 51.0684 7.58594L48.0361 22ZM51.4346 19.1875C51.4346 18.3086 51.6689 17.4346 52.1377 16.5654C52.6162 15.6865 53.2314 14.9736 53.9834 14.4268C54.7354 13.8799 55.502 13.6064 56.2832 13.6064C57.1035 13.6064 57.7627 13.8799 58.2607 14.4268C58.7686 14.9639 59.0225 15.6621 59.0225 16.5215C59.0225 17.459 58.7881 18.3672 58.3193 19.2461C57.8604 20.125 57.25 20.8477 56.4883 21.4141C55.7363 21.9707 54.9746 22.249 54.2031 22.249C53.373 22.249 52.7041 21.9707 52.1963 21.4141C51.6885 20.8477 51.4346 20.1055 51.4346 19.1875ZM57.7041 15.9648C57.7041 15.3789 57.5576 14.8955 57.2646 14.5146C56.9814 14.1338 56.6152 13.9434 56.166 13.9434C55.7559 13.9434 55.3604 14.0752 54.9795 14.3389C54.6084 14.6025 54.2666 14.9883 53.9541 15.4961C53.6025 16.082 53.3096 16.7656 53.0752 17.5469C52.8506 18.3281 52.7383 19.0215 52.7383 19.627C52.7383 20.3496 52.8799 20.9062 53.1631 21.2969C53.4463 21.6875 53.8516 21.8828 54.3789 21.8828C55.2285 21.8828 55.9756 21.292 56.6201 20.1104C56.9521 19.5049 57.2158 18.8262 57.4111 18.0742C57.6064 17.3223 57.7041 16.6191 57.7041 15.9648ZM60.2236 19.1875C60.2236 18.3086 60.458 17.4346 60.9268 16.5654C61.4053 15.6865 62.0205 14.9736 62.7725 14.4268C63.5244 13.8799 64.291 13.6064 65.0723 13.6064C65.8926 13.6064 66.5518 13.8799 67.0498 14.4268C67.5576 14.9639 67.8115 15.6621 67.8115 16.5215C67.8115 17.459 67.5771 18.3672 67.1084 19.2461C66.6494 20.125 66.0391 20.8477 65.2773 21.4141C64.5254 21.9707 63.7637 22.249 62.9922 22.249C62.1621 22.249 61.4932 21.9707 60.9854 21.4141C60.4775 20.8477 60.2236 20.1055 60.2236 19.1875ZM66.4932 15.9648C66.4932 15.3789 66.3467 14.8955 66.0537 14.5146C65.7705 14.1338 65.4043 13.9434 64.9551 13.9434C64.5449 13.9434 64.1494 14.0752 63.7686 14.3389C63.3975 14.6025 63.0557 14.9883 62.7432 15.4961C62.3916 16.082 62.0986 16.7656 61.8643 17.5469C61.6396 18.3281 61.5273 19.0215 61.5273 19.627C61.5273 20.3496 61.6689 20.9062 61.9521 21.2969C62.2354 21.6875 62.6406 21.8828 63.168 21.8828C64.0176 21.8828 64.7646 21.292 65.4092 20.1104C65.7412 19.5049 66.0049 18.8262 66.2002 18.0742C66.3955 17.3223 66.4932 16.6191 66.4932 15.9648ZM69.1592 22.1465L70.7119 14.0312L72.1035 13.4307L70.8438 18.8066C71.6543 17.0977 72.46 15.7988 73.2607 14.9102C74.0615 14.0215 74.8281 13.5771 75.5605 13.5771C75.9219 13.5771 76.2148 13.6992 76.4395 13.9434C76.6641 14.1777 76.7764 14.4951 76.7764 14.8955C76.7764 15.1201 76.7227 15.4375 76.6152 15.8477L76.4688 16.4629L76.0293 18.25L75.8828 18.8213C75.7363 19.4072 75.6631 19.8564 75.6631 20.1689C75.6631 20.4814 75.7168 20.7354 75.8242 20.9307C75.9316 21.1162 76.0732 21.209 76.249 21.209C76.5518 21.209 77.0352 20.8477 77.6992 20.125L77.9336 20.3301L77.7871 20.4912C77.2305 21.1455 76.8203 21.5898 76.5566 21.8242C76.293 22.0488 76.0488 22.1611 75.8242 22.1611C75.5215 22.1611 75.2627 22.0098 75.0479 21.707C74.8428 21.3945 74.7402 21.0088 74.7402 20.5498C74.7402 20.2373 74.7988 19.7734 74.916 19.1582L75.4873 16.0527C75.5654 15.5645 75.6045 15.2227 75.6045 15.0273C75.6045 14.8223 75.5508 14.666 75.4434 14.5586C75.3359 14.4512 75.1895 14.3975 75.0039 14.3975C74.3301 14.3975 73.5 15.1201 72.5137 16.5654C72.0352 17.2588 71.6396 17.9473 71.3271 18.6309C71.0146 19.3047 70.6631 20.2422 70.2725 21.4434L70.1406 21.8389L69.1592 22.1465Z" fill="black"/>
<path d="M48.0361 22V23H48.8477L49.0147 22.2059L48.0361 22ZM46.6299 22L45.6511 21.7953L45.3991 23H46.6299V22ZM49.7207 7.21973L50.6996 7.42442L50.7013 7.41584L49.7207 7.21973ZM49.8232 6.70703L50.8039 6.90316L50.8058 6.89292L49.8232 6.70703ZM49.7793 5.50586L48.9867 6.11557L48.9986 6.13105L49.0111 6.14604L49.7793 5.50586ZM48.4463 5.81348L47.7495 5.0962L48.4463 5.81348ZM47.1572 7.4834L47.9872 8.04125L47.9909 8.03569L47.1572 7.4834ZM44.5352 12.4492L43.6222 12.0411L43.6213 12.0431L44.5352 12.4492ZM42.6309 17.3271L41.6822 17.0109L41.681 17.0145L42.6309 17.3271ZM41.3564 22V23H42.1641L42.3341 22.2104L41.3564 22ZM40.1406 22L39.1627 21.7911L38.9044 23H40.1406V22ZM43.5391 6.0918L42.5615 5.88096L42.5611 5.88288L43.5391 6.0918ZM43.4219 4.29004L42.8219 5.09004L42.8441 5.10669L42.8672 5.12209L43.4219 4.29004ZM41.459 5.5498L42.2601 6.1484L42.2632 6.1442L41.459 5.5498ZM39.1006 9.70996L39.993 10.1613L39.9973 10.1527L40.0015 10.1441L39.1006 9.70996ZM36.7861 14.9688L35.8546 14.6052L36.7861 14.9688ZM35.7314 17.8984L34.7844 17.5774L34.7839 17.5789L35.7314 17.8984ZM34.501 22V23H35.2888L35.4732 22.2341L34.501 22ZM33.2705 22L32.2927 21.7905L32.0335 23H33.2705V22ZM33.3145 21.7949L32.3446 21.5511L32.3403 21.5682L32.3367 21.5854L33.3145 21.7949ZM33.9443 19.29L34.9141 19.5339L34.9161 19.5262L34.9179 19.5185L33.9443 19.29ZM34.5303 16.7412L35.5062 16.9595L35.5068 16.9567L34.5303 16.7412ZM36.2295 8.17188L35.2443 8.00029L35.2425 8.011L36.2295 8.17188ZM36.4199 3.10352L35.5368 3.57267L35.5457 3.58933L35.5551 3.60565L36.4199 3.10352ZM33.7393 5.59375L32.7794 5.31339L32.7792 5.31404L33.7393 5.59375ZM32.9043 9.60742L32.3573 10.4446L33.6819 11.3099L33.8952 9.74223L32.9043 9.60742ZM31.8057 8.88965L30.8142 8.759L30.732 9.38272L31.2587 9.72681L31.8057 8.88965ZM32.626 5.47656L31.6926 5.11757L31.6896 5.12544L32.626 5.47656ZM34.0029 3.07422L33.2602 2.40458L33.2596 2.40525L34.0029 3.07422ZM37.0938 3.17676L36.2099 3.64468L36.2154 3.6547L37.0938 3.17676ZM37.3721 9.19727L36.3821 9.05584L36.3811 9.06335L37.3721 9.19727ZM36.9033 11.9512L37.8869 12.1316L37.8877 12.1272L36.9033 11.9512ZM36.3174 15.1445L35.3338 14.9641L37.271 15.4457L36.3174 15.1445ZM36.4053 14.8662L35.4666 14.5214L35.4586 14.5431L35.4517 14.5651L36.4053 14.8662ZM39.4668 8.09863L38.58 7.63643L38.5778 7.64076L39.4668 8.09863ZM41.7959 4.45117L41.0417 3.79455L41.0411 3.79522L41.7959 4.45117ZM44.6816 3.64551L43.9134 4.28569L43.9188 4.29212L43.9242 4.29845L44.6816 3.64551ZM44.7695 6.73633L43.7916 6.52755L43.7908 6.53139L44.7695 6.73633ZM43.0703 14.8516L42.0915 14.6466L44.0138 15.183L43.0703 14.8516ZM43.9492 12.7715L43.0375 12.3606L43.0365 12.3629L43.9492 12.7715ZM47.377 6.35547L48.187 6.94185L48.1891 6.93898L47.377 6.35547ZM50.9512 4.80273L50.1808 5.4403L50.1927 5.45476L50.2052 5.46875L50.9512 4.80273ZM51.0684 7.58594L50.0918 7.37034L50.0898 7.38008L51.0684 7.58594ZM48.0361 21H46.6299V23H48.0361V21ZM47.6087 22.2047L50.6995 7.42442L48.7419 7.01504L45.6511 21.7953L47.6087 22.2047ZM50.7013 7.41584L50.8038 6.90315L48.8427 6.51092L48.7401 7.02361L50.7013 7.41584ZM50.8058 6.89292C50.8726 6.53968 50.9258 6.20335 50.9258 5.95996H48.9258C48.9258 5.95986 48.9245 6.00318 48.9094 6.11329C48.8954 6.2154 48.873 6.35022 48.8407 6.52114L50.8058 6.89292ZM50.9258 5.95996C50.9258 5.59301 50.8254 5.19918 50.5475 4.86567L49.0111 6.14604C48.9745 6.10216 48.9506 6.05509 48.9375 6.01428C48.925 5.97583 48.9258 5.95446 48.9258 5.95996H50.9258ZM50.5719 4.89615C50.2647 4.49679 49.8206 4.31543 49.3691 4.31543V6.31543C49.3356 6.31543 49.2662 6.30893 49.1824 6.27005C49.0957 6.22979 49.0296 6.17143 48.9867 6.11557L50.5719 4.89615ZM49.3691 4.31543C48.6996 4.31543 48.15 4.70715 47.7495 5.0962L49.1431 6.53076C49.2701 6.40739 49.3589 6.34661 49.4083 6.31996C49.4558 6.29432 49.4381 6.31543 49.3691 6.31543V4.31543ZM47.7495 5.0962C47.328 5.50562 46.8505 6.13575 46.3236 6.93111L47.9909 8.03569C48.4991 7.26854 48.8809 6.78539 49.1431 6.53076L47.7495 5.0962ZM46.3273 6.92556C45.4813 8.18426 44.5804 9.89745 43.6222 12.0411L45.4481 12.8573C46.3844 10.7627 47.2316 9.16535 47.9872 8.04123L46.3273 6.92556ZM43.6213 12.0431C42.8673 13.7396 42.2206 15.3956 41.6822 17.0109L43.5795 17.6434C44.0958 16.0946 44.7186 14.4986 45.449 12.8554L43.6213 12.0431ZM41.681 17.0145C41.1529 18.6187 40.7186 20.2105 40.3788 21.7896L42.3341 22.2104C42.6583 20.7036 43.0737 19.1801 43.5807 17.6398L41.681 17.0145ZM41.3564 21H40.1406V23H41.3564V21ZM41.1186 22.2089L44.517 6.30071L42.5611 5.88288L39.1627 21.7911L41.1186 22.2089ZM44.5166 6.30263C44.6291 5.78087 44.7002 5.30897 44.7002 4.91992H42.7002C42.7002 5.09728 42.6638 5.40663 42.5615 5.88096L44.5166 6.30263ZM44.7002 4.91992C44.7002 4.66094 44.6496 4.40815 44.55 4.1691L42.7039 4.93833C42.7035 4.93734 42.7023 4.93408 42.7013 4.92927C42.7003 4.92446 42.7002 4.92099 42.7002 4.91992H44.7002ZM44.55 4.1691C44.4408 3.90698 44.2594 3.64655 43.9766 3.45799L42.8672 5.12209C42.7601 5.05071 42.7154 4.96606 42.7039 4.93833L44.55 4.1691ZM44.0219 3.49004C43.7532 3.28856 43.4445 3.20215 43.1436 3.20215V5.20215C43.1057 5.20215 43.0532 5.19684 42.9926 5.1777C42.931 5.15825 42.8727 5.12817 42.8219 5.09004L44.0219 3.49004ZM43.1436 3.20215C42.5899 3.20215 42.117 3.46741 41.7535 3.75819C41.3786 4.05811 41.0133 4.47042 40.6548 4.95541L42.2632 6.1442C42.5687 5.73075 42.8162 5.46924 43.0029 5.31993C43.2009 5.1615 43.2382 5.20215 43.1436 5.20215V3.20215ZM40.6579 4.95121C39.9353 5.91832 39.1159 7.37447 38.1997 9.27586L40.0015 10.1441C40.9016 8.27592 41.6546 6.95863 42.26 6.1484L40.6579 4.95121ZM38.2082 9.25865C37.7688 10.1274 37.3453 11.0345 36.9373 11.9797L38.7736 12.7722C39.1665 11.862 39.5729 10.9917 39.993 10.1613L38.2082 9.25865ZM36.9373 11.9797C36.533 12.9165 36.172 13.7917 35.8546 14.6052L37.7177 15.3323C38.0253 14.5442 38.3771 13.691 38.7736 12.7722L36.9373 11.9797ZM35.8546 14.6052C35.5348 15.4245 35.178 16.4161 34.7844 17.5774L36.6785 18.2195C37.0661 17.0761 37.4124 16.1146 37.7177 15.3323L35.8546 14.6052ZM34.7839 17.5789C34.2131 19.2715 33.7925 20.6702 33.5288 21.7659L35.4732 22.2341C35.7172 21.2204 36.117 19.8847 36.679 18.218L34.7839 17.5789ZM34.501 21H33.2705V23H34.501V21ZM34.2483 22.2095L34.2923 22.0045L32.3367 21.5854L32.2927 21.7905L34.2483 22.2095ZM34.2843 22.0388L34.9141 19.5339L32.9745 19.0462L32.3446 21.5511L34.2843 22.0388ZM34.9179 19.5185C35.1431 18.559 35.3392 17.7059 35.5062 16.9595L33.5544 16.5229C33.3893 17.2609 33.1948 18.107 32.9708 19.0616L34.9179 19.5185ZM35.5068 16.9567C36.2802 13.4517 36.8509 10.5753 37.2165 8.33275L35.2425 8.011C34.8854 10.2021 34.3233 13.0385 33.5538 16.5257L35.5068 16.9567ZM37.2147 8.34345C37.518 6.60183 37.6836 5.27263 37.6836 4.40723H35.6836C35.6836 5.08479 35.5465 6.26536 35.2443 8.0003L37.2147 8.34345ZM37.6836 4.40723C37.6836 3.76237 37.5879 3.12346 37.2847 2.60138L35.5551 3.60565C35.6036 3.68904 35.6836 3.91927 35.6836 4.40723H37.6836ZM37.303 2.63436C36.9989 2.06193 36.4593 1.63477 35.7168 1.63477V3.63477C35.7057 3.63477 35.6825 3.63321 35.6517 3.62426C35.6204 3.61514 35.5905 3.60102 35.5649 3.584C35.5134 3.54962 35.512 3.52595 35.5368 3.57267L37.303 2.63436ZM35.7168 1.63477C34.8483 1.63477 34.2351 2.21921 33.8344 2.81886C33.4215 3.43668 33.0784 4.28972 32.7794 5.31339L34.6992 5.87411C34.9763 4.92513 35.2509 4.29867 35.4972 3.93016C35.7556 3.54348 35.8432 3.63477 35.7168 3.63477V1.63477ZM32.7792 5.31404C32.4025 6.60705 32.1146 7.99387 31.9134 9.47261L33.8952 9.74223C34.0846 8.34988 34.3534 7.06092 34.6993 5.87346L32.7792 5.31404ZM33.4512 8.77026L32.3526 8.05248L31.2587 9.72681L32.3573 10.4446L33.4512 8.77026ZM32.7971 9.0203C32.9548 7.82339 33.2122 6.76125 33.5623 5.82769L31.6896 5.12544C31.278 6.22312 30.9885 7.43637 30.8142 8.759L32.7971 9.0203ZM33.5593 5.83554C33.9216 4.89363 34.3253 4.21089 34.7462 3.74318L33.2596 2.40525C32.6259 3.10942 32.1116 4.02824 31.6926 5.11758L33.5593 5.83554ZM34.7456 3.74386C35.1828 3.25899 35.476 3.18066 35.6289 3.18066V1.18066C34.688 1.18066 33.8973 1.69804 33.2602 2.40458L34.7456 3.74386ZM35.6289 3.18066C35.8015 3.18066 35.9897 3.22854 36.21 3.64465L37.9775 2.70887C37.4947 1.79685 36.7063 1.18066 35.6289 1.18066V3.18066ZM36.2154 3.6547C36.4658 4.11495 36.6357 4.83585 36.6357 5.90137H38.6357C38.6357 4.66219 38.4444 3.56669 37.9721 2.69881L36.2154 3.6547ZM36.6357 5.90137C36.6357 6.80972 36.553 7.85973 36.3821 9.05584L38.362 9.33869C38.5427 8.07386 38.6357 6.92661 38.6357 5.90137H36.6357ZM36.3811 9.06335C36.3358 9.39867 36.1841 10.2923 35.9189 11.7752L37.8877 12.1272C38.1499 10.6608 38.3107 9.71851 38.3631 9.33118L36.3811 9.06335ZM35.9197 11.7707L35.3338 14.9641L37.301 15.325L37.8869 12.1316L35.9197 11.7707ZM37.271 15.4457L37.3589 15.1673L35.4517 14.5651L35.3638 14.8434L37.271 15.4457ZM37.3439 15.211C38.0282 13.3482 39.0295 11.1318 40.3558 8.55651L38.5778 7.64076C37.2284 10.2608 36.1886 12.5561 35.4666 14.5214L37.3439 15.211ZM40.3536 8.56083C41.1779 6.97928 41.9121 5.84197 42.5507 5.10713L41.0411 3.79522C40.2539 4.701 39.4354 5.99533 38.58 7.63643L40.3536 8.56083ZM42.5501 5.10779C43.2353 4.32073 43.6331 4.20605 43.7588 4.20605V2.20605C42.7126 2.20605 41.8018 2.92146 41.0417 3.79455L42.5501 5.10779ZM43.7588 4.20605C43.809 4.20605 43.83 4.21504 43.8379 4.21878C43.8465 4.22288 43.8727 4.23687 43.9134 4.28569L45.4499 3.00532C45.0218 2.49164 44.436 2.20605 43.7588 2.20605V4.20605ZM43.9242 4.29845C43.9818 4.36518 44.0479 4.48408 44.0479 4.74414H46.0479C46.0479 4.10577 45.8698 3.49224 45.4391 2.99257L43.9242 4.29845ZM44.0479 4.74414C44.0479 5.09504 43.9734 5.6759 43.7916 6.52755L45.7475 6.94511C45.9368 6.05848 46.0479 5.31121 46.0479 4.74414H44.0479ZM43.7908 6.53139L42.0915 14.6466L44.0491 15.0565L45.7483 6.94127L43.7908 6.53139ZM44.0138 15.183C44.1247 14.8672 44.4004 14.2111 44.862 13.18L43.0365 12.3629C42.5801 13.3826 42.2698 14.1133 42.1269 14.5201L44.0138 15.183ZM44.8609 13.1823C46.193 10.2264 47.3019 8.16455 48.187 6.94184L46.5669 5.7691C45.5575 7.16358 44.3812 9.37906 43.0375 12.3606L44.8609 13.1823ZM48.1891 6.93898C48.6294 6.3261 49.0172 5.918 49.3451 5.67071C49.6713 5.42465 49.8832 5.37793 49.999 5.37793V3.37793C49.3141 3.37793 48.6886 3.6608 48.1408 4.07392C47.5946 4.48581 47.0717 5.06648 46.5648 5.77196L48.1891 6.93898ZM49.999 5.37793C50.0801 5.37793 50.1175 5.39183 50.1299 5.39736C50.1399 5.40182 50.1559 5.41028 50.1808 5.4403L51.7216 4.16517C51.2788 3.6301 50.6672 3.37793 49.999 3.37793V5.37793ZM50.2052 5.46875C50.2475 5.51605 50.3174 5.62377 50.3174 5.90137H52.3174C52.3174 5.261 52.1432 4.63629 51.6971 4.13672L50.2052 5.46875ZM50.3174 5.90137C50.3174 6.15778 50.2552 6.63056 50.0919 7.37035L52.0448 7.80152C52.2135 7.0374 52.3174 6.38714 52.3174 5.90137H50.3174ZM50.0898 7.38008L47.0576 21.7941L49.0147 22.2059L52.0469 7.7918L50.0898 7.38008ZM52.1377 16.5654L51.2594 16.0873L51.2575 16.0907L52.1377 16.5654ZM58.2607 14.4268L57.5214 15.1001L57.5277 15.107L57.5341 15.1138L58.2607 14.4268ZM58.3193 19.2461L57.4369 18.7755L57.4329 18.7832L58.3193 19.2461ZM56.4883 21.4141L57.0833 22.2178L57.085 22.2165L56.4883 21.4141ZM52.1963 21.4141L51.4517 22.0816L51.4575 22.088L52.1963 21.4141ZM57.2646 14.5146L56.4622 15.1114L56.4671 15.1179L56.472 15.1244L57.2646 14.5146ZM54.9795 14.3389L54.4102 13.5166L54.4003 13.5237L54.9795 14.3389ZM53.9541 15.4961L53.1024 14.972L53.0966 14.9816L53.9541 15.4961ZM53.0752 17.5469L52.1173 17.2595L52.1141 17.2706L53.0752 17.5469ZM56.6201 20.1104L55.7433 19.6295L55.7422 19.6315L56.6201 20.1104ZM52.4346 19.1875C52.4346 18.4939 52.6179 17.7817 53.0178 17.0401L51.2575 16.0907C50.72 17.0874 50.4346 18.1233 50.4346 19.1875H52.4346ZM53.016 17.0436C53.429 16.2849 53.9486 15.6885 54.5716 15.2355L53.3952 13.618C52.5143 14.2587 51.8034 15.0881 51.2594 16.0873L53.016 17.0436ZM54.5716 15.2355C55.186 14.7886 55.7511 14.6064 56.2832 14.6064V12.6064C55.2528 12.6064 54.2847 12.9711 53.3952 13.618L54.5716 15.2355ZM56.2832 14.6064C56.8562 14.6064 57.2347 14.7853 57.5214 15.1001L59.0001 13.7534C58.2907 12.9745 57.3508 12.6064 56.2832 12.6064V14.6064ZM57.5341 15.1138C57.838 15.4352 58.0225 15.8731 58.0225 16.5215H60.0225C60.0225 15.4511 59.6991 14.4925 58.9874 13.7397L57.5341 15.1138ZM58.0225 16.5215C58.0225 17.2846 57.8335 18.0321 57.437 18.7755L59.2017 19.7167C59.7427 18.7023 60.0225 17.6334 60.0225 16.5215H58.0225ZM57.4329 18.7832C57.0405 19.5346 56.527 20.1391 55.8916 20.6116L57.085 22.2165C57.973 21.5562 58.6802 20.7154 59.2057 19.709L57.4329 18.7832ZM55.8933 20.6103C55.2761 21.0672 54.718 21.249 54.2031 21.249V23.249C55.2312 23.249 56.1966 22.8742 57.0833 22.2178L55.8933 20.6103ZM54.2031 21.249C53.6223 21.249 53.2329 21.0666 52.9351 20.7401L51.4575 22.088C52.1753 22.8748 53.1238 23.249 54.2031 23.249V21.249ZM52.9409 20.7465C52.6301 20.3999 52.4346 19.9126 52.4346 19.1875H50.4346C50.4346 20.2983 50.7469 21.2955 51.4517 22.0816L52.9409 20.7465ZM58.7041 15.9648C58.7041 15.208 58.5121 14.4963 58.0573 13.9049L56.472 15.1244C56.6031 15.2947 56.7041 15.5498 56.7041 15.9648H58.7041ZM58.0671 13.9179C57.6077 13.3001 56.9518 12.9434 56.166 12.9434V14.9434C56.2787 14.9434 56.3552 14.9675 56.4622 15.1114L58.0671 13.9179ZM56.166 12.9434C55.5268 12.9434 54.9359 13.1528 54.4103 13.5167L55.5487 15.1611C55.7848 14.9976 55.985 14.9434 56.166 14.9434V12.9434ZM54.4003 13.5237C53.8915 13.8852 53.4645 14.3836 53.1024 14.972L54.8058 16.0202C55.0687 15.593 55.3253 15.3199 55.5587 15.154L54.4003 13.5237ZM53.0966 14.9816C52.695 15.651 52.3712 16.4135 52.1174 17.2595L54.033 17.8342C54.248 17.1177 54.5101 16.5131 54.8116 16.0106L53.0966 14.9816ZM52.1141 17.2706C51.8719 18.113 51.7383 18.9023 51.7383 19.627H53.7383C53.7383 19.1407 53.8293 18.5432 54.0363 17.8232L52.1141 17.2706ZM51.7383 19.627C51.7383 20.461 51.8987 21.2566 52.3535 21.8838L53.9727 20.7099C53.861 20.5559 53.7383 20.2382 53.7383 19.627H51.7383ZM52.3535 21.8838C52.8442 22.5608 53.5658 22.8828 54.3789 22.8828V20.8828C54.1374 20.8828 54.0483 20.8142 53.9727 20.7099L52.3535 21.8838ZM54.3789 22.8828C55.7775 22.8828 56.7881 21.8907 57.498 20.5892L55.7422 19.6315C55.163 20.6933 54.6795 20.8828 54.3789 20.8828V22.8828ZM57.4969 20.5912C57.8733 19.9049 58.1655 19.1477 58.379 18.3256L56.4432 17.8228C56.2662 18.5046 56.031 19.1048 55.7433 19.6295L57.4969 20.5912ZM58.379 18.3256C58.5918 17.5064 58.7041 16.718 58.7041 15.9648H56.7041C56.7041 16.5202 56.6211 17.1381 56.4432 17.8228L58.379 18.3256ZM60.9268 16.5654L60.0485 16.0873L60.0466 16.0907L60.9268 16.5654ZM67.0498 14.4268L66.3105 15.1001L66.3167 15.107L66.3232 15.1138L67.0498 14.4268ZM67.1084 19.2461L66.226 18.7755L66.222 18.7832L67.1084 19.2461ZM65.2773 21.4141L65.8723 22.2178L65.874 22.2165L65.2773 21.4141ZM60.9854 21.4141L60.2408 22.0816L60.2466 22.088L60.9854 21.4141ZM66.0537 14.5146L65.2512 15.1114L65.2561 15.1179L65.2611 15.1244L66.0537 14.5146ZM63.7686 14.3389L63.1993 13.5166L63.1893 13.5237L63.7686 14.3389ZM62.7432 15.4961L61.8915 14.972L61.8857 14.9816L62.7432 15.4961ZM61.8643 17.5469L60.9064 17.2595L60.9032 17.2706L61.8643 17.5469ZM65.4092 20.1104L64.5324 19.6295L64.5313 19.6315L65.4092 20.1104ZM61.2236 19.1875C61.2236 18.4939 61.407 17.7817 61.8069 17.0401L60.0466 16.0907C59.5091 17.0874 59.2236 18.1233 59.2236 19.1875H61.2236ZM61.805 17.0436C62.2181 16.2849 62.7377 15.6885 63.3606 15.2355L62.1843 13.618C61.3033 14.2587 60.5925 15.0881 60.0485 16.0873L61.805 17.0436ZM63.3606 15.2355C63.9751 14.7886 64.5402 14.6064 65.0723 14.6064V12.6064C64.0418 12.6064 63.0738 12.9711 62.1843 13.618L63.3606 15.2355ZM65.0723 14.6064C65.6453 14.6064 66.0237 14.7853 66.3105 15.1001L67.7891 13.7534C67.0798 12.9745 66.1399 12.6064 65.0723 12.6064V14.6064ZM66.3232 15.1138C66.6271 15.4352 66.8115 15.8731 66.8115 16.5215H68.8115C68.8115 15.4511 68.4882 14.4925 67.7765 13.7397L66.3232 15.1138ZM66.8115 16.5215C66.8115 17.2846 66.6225 18.0321 66.226 18.7755L67.9908 19.7167C68.5318 18.7023 68.8115 17.6334 68.8115 16.5215H66.8115ZM66.222 18.7832C65.8296 19.5346 65.316 20.1391 64.6806 20.6116L65.874 22.2165C66.7621 21.5562 67.4693 20.7154 67.9948 19.709L66.222 18.7832ZM64.6824 20.6103C64.0651 21.0672 63.5071 21.249 62.9922 21.249V23.249C64.0203 23.249 64.9857 22.8742 65.8723 22.2178L64.6824 20.6103ZM62.9922 21.249C62.4114 21.249 62.022 21.0666 61.7241 20.7401L60.2466 22.088C60.9643 22.8748 61.9128 23.249 62.9922 23.249V21.249ZM61.7299 20.7465C61.4191 20.3999 61.2236 19.9126 61.2236 19.1875H59.2236C59.2236 20.2983 59.536 21.2955 60.2408 22.0816L61.7299 20.7465ZM67.4932 15.9648C67.4932 15.208 67.3012 14.4963 66.8463 13.9049L65.2611 15.1244C65.3922 15.2947 65.4932 15.5498 65.4932 15.9648H67.4932ZM66.8562 13.9179C66.3968 13.3001 65.7408 12.9434 64.9551 12.9434V14.9434C65.0678 14.9434 65.1443 14.9675 65.2512 15.1114L66.8562 13.9179ZM64.9551 12.9434C64.3158 12.9434 63.725 13.1528 63.1993 13.5167L64.3378 15.1611C64.5738 14.9976 64.774 14.9434 64.9551 14.9434V12.9434ZM63.1893 13.5237C62.6806 13.8852 62.2536 14.3836 61.8915 14.972L63.5948 16.0202C63.8577 15.593 64.1143 15.3199 64.3478 15.154L63.1893 13.5237ZM61.8857 14.9816C61.4841 15.651 61.1602 16.4135 60.9064 17.2595L62.8221 17.8342C63.037 17.1177 63.2991 16.5131 63.6007 16.0106L61.8857 14.9816ZM60.9032 17.2706C60.661 18.113 60.5273 18.9023 60.5273 19.627H62.5273C62.5273 19.1407 62.6183 18.5432 62.8253 17.8232L60.9032 17.2706ZM60.5273 19.627C60.5273 20.461 60.6878 21.2566 61.1425 21.8838L62.7618 20.7099C62.6501 20.5559 62.5273 20.2382 62.5273 19.627H60.5273ZM61.1425 21.8838C61.6333 22.5608 62.3548 22.8828 63.168 22.8828V20.8828C62.9264 20.8828 62.8374 20.8142 62.7618 20.7099L61.1425 21.8838ZM63.168 22.8828C64.5666 22.8828 65.5772 21.8907 66.2871 20.5892L64.5313 19.6315C63.9521 20.6933 63.4686 20.8828 63.168 20.8828V22.8828ZM66.286 20.5912C66.6623 19.9049 66.9545 19.1477 67.1681 18.3256L65.2323 17.8228C65.0552 18.5046 64.8201 19.1048 64.5324 19.6295L66.286 20.5912ZM67.1681 18.3256C67.3809 17.5064 67.4932 16.718 67.4932 15.9648H65.4932C65.4932 16.5202 65.4102 17.1381 65.2323 17.8228L67.1681 18.3256ZM69.1592 22.1465L68.177 21.9586L67.8628 23.6008L69.4583 23.1007L69.1592 22.1465ZM70.7119 14.0312L70.3157 13.1131L69.8293 13.323L69.7297 13.8433L70.7119 14.0312ZM72.1035 13.4307L73.0771 13.6588L73.5301 11.7258L71.7073 12.5125L72.1035 13.4307ZM70.8438 18.8066L69.8701 18.5785L71.7473 19.2352L70.8438 18.8066ZM73.2607 14.9102L72.5179 14.2407L73.2607 14.9102ZM76.4395 13.9434L75.7035 14.6204L75.7104 14.6279L75.7175 14.6353L76.4395 13.9434ZM76.6152 15.8477L75.6479 15.5943L75.645 15.6051L75.6424 15.616L76.6152 15.8477ZM76.4688 16.4629L77.4398 16.7017L77.4416 16.6945L76.4688 16.4629ZM76.0293 18.25L76.998 18.4984L77.0004 18.4888L76.0293 18.25ZM75.8828 18.8213L74.9141 18.5729L74.9127 18.5788L75.8828 18.8213ZM75.8242 20.9307L74.948 21.4126L74.9533 21.4222L74.9588 21.4317L75.8242 20.9307ZM77.6992 20.125L78.3577 19.3724L77.6232 18.7298L76.9629 19.4484L77.6992 20.125ZM77.9336 20.3301L78.6735 21.0028L79.3591 20.2486L78.5921 19.5775L77.9336 20.3301ZM77.7871 20.4912L77.0472 19.8185L77.0361 19.8307L77.0255 19.8432L77.7871 20.4912ZM76.5566 21.8242L77.2051 22.5855L77.2131 22.5786L77.221 22.5716L76.5566 21.8242ZM75.0479 21.707L74.2118 22.2557L74.2218 22.2709L74.2323 22.2858L75.0479 21.707ZM74.916 19.1582L75.8984 19.3453L75.8995 19.3391L74.916 19.1582ZM75.4873 16.0527L76.4708 16.2337L76.4729 16.2222L76.4747 16.2107L75.4873 16.0527ZM75.4434 14.5586L74.7363 15.2657L75.4434 14.5586ZM72.5137 16.5654L73.3367 17.1334L73.3397 17.1291L72.5137 16.5654ZM71.3271 18.6309L72.2344 19.0516L72.2366 19.0466L71.3271 18.6309ZM70.2725 21.4434L71.2212 21.7596L71.2234 21.7526L70.2725 21.4434ZM70.1406 21.8389L70.4397 22.7931L70.9276 22.6402L71.0893 22.1551L70.1406 21.8389ZM70.1414 22.3344L71.6941 14.2192L69.7297 13.8433L68.177 21.9586L70.1414 22.3344ZM71.1082 14.9494L72.4998 14.3488L71.7073 12.5125L70.3157 13.1131L71.1082 14.9494ZM71.1299 13.2025L69.8701 18.5785L71.8174 19.0348L73.0771 13.6588L71.1299 13.2025ZM71.7473 19.2352C72.5374 17.5693 73.2942 16.3669 74.0036 15.5796L72.5179 14.2407C71.6258 15.2307 70.7712 16.6261 69.9402 18.3781L71.7473 19.2352ZM74.0036 15.5796C74.7312 14.7721 75.2481 14.5771 75.5605 14.5771V12.5771C74.4082 12.5771 73.3918 13.2708 72.5179 14.2407L74.0036 15.5796ZM75.5605 14.5771C75.6274 14.5771 75.6578 14.5881 75.6667 14.5918C75.6736 14.5947 75.6846 14.5999 75.7035 14.6204L77.1754 13.2663C76.7433 12.7967 76.1737 12.5771 75.5605 12.5771V14.5771ZM75.7175 14.6353C75.7241 14.6422 75.7764 14.6895 75.7764 14.8955H77.7764C77.7764 14.3007 77.604 13.7132 77.1614 13.2515L75.7175 14.6353ZM75.7764 14.8955C75.7764 14.9896 75.7492 15.2075 75.6479 15.5943L77.5826 16.101C77.6961 15.6675 77.7764 15.2506 77.7764 14.8955H75.7764ZM75.6424 15.616L75.4959 16.2313L77.4416 16.6945L77.588 16.0793L75.6424 15.616ZM75.4977 16.2241L75.0582 18.0112L77.0004 18.4888L77.4398 16.7017L75.4977 16.2241ZM75.0606 18.0016L74.9141 18.5729L76.8515 19.0697L76.998 18.4984L75.0606 18.0016ZM74.9127 18.5788C74.7611 19.1849 74.6631 19.7305 74.6631 20.1689H76.6631C76.6631 19.9824 76.7115 19.6295 76.853 19.0638L74.9127 18.5788ZM74.6631 20.1689C74.6631 20.5859 74.7333 21.0222 74.948 21.4126L76.7004 20.4487C76.7011 20.45 76.6915 20.433 76.6817 20.3868C76.6718 20.34 76.6631 20.2692 76.6631 20.1689H74.6631ZM74.9588 21.4317C75.1989 21.8464 75.6331 22.209 76.249 22.209V20.209C76.3479 20.209 76.4605 20.2384 76.559 20.3029C76.6488 20.3618 76.6855 20.4224 76.6896 20.4296L74.9588 21.4317ZM76.249 22.209C76.7448 22.209 77.1666 21.9413 77.4373 21.739C77.7496 21.5055 78.0841 21.1841 78.4355 20.8016L76.9629 19.4484C76.6503 19.7886 76.411 20.0091 76.2399 20.137C76.1552 20.2004 76.1071 20.2258 76.0923 20.2326C76.0729 20.2415 76.1325 20.209 76.249 20.209V22.209ZM77.0407 20.8776L77.2751 21.0827L78.5921 19.5775L78.3577 19.3724L77.0407 20.8776ZM77.1937 19.6574L77.0472 19.8185L78.527 21.1639L78.6735 21.0028L77.1937 19.6574ZM77.0255 19.8432C76.4684 20.498 76.0982 20.8937 75.8923 21.0768L77.221 22.5716C77.5424 22.286 77.9925 21.793 78.5488 21.1392L77.0255 19.8432ZM75.9082 21.063C75.8271 21.132 75.7767 21.1597 75.7579 21.1684C75.7415 21.1759 75.7667 21.1611 75.8242 21.1611V23.1611C76.3859 23.1611 76.8542 22.8844 77.2051 22.5855L75.9082 21.063ZM75.8242 21.1611C75.8328 21.1611 75.8476 21.1623 75.8657 21.1672C75.8838 21.1721 75.8984 21.1788 75.908 21.1844C75.9267 21.1954 75.9077 21.1907 75.8634 21.1283L74.2323 22.2858C74.5869 22.7854 75.1228 23.1611 75.8242 23.1611V21.1611ZM75.8839 21.1584C75.8079 21.0426 75.7402 20.8585 75.7402 20.5498H73.7402C73.7402 21.159 73.8776 21.7465 74.2118 22.2557L75.8839 21.1584ZM75.7402 20.5498C75.7402 20.3353 75.7837 19.9473 75.8984 19.3453L73.9337 18.9711C73.814 19.5996 73.7402 20.1393 73.7402 20.5498H75.7402ZM75.8995 19.3391L76.4708 16.2337L74.5038 15.8718L73.9325 18.9773L75.8995 19.3391ZM76.4747 16.2107C76.5524 15.7256 76.6045 15.3117 76.6045 15.0273H74.6045C74.6045 15.1336 74.5785 15.4033 74.4999 15.8947L76.4747 16.2107ZM76.6045 15.0273C76.6045 14.6525 76.5036 14.2046 76.1505 13.8515L74.7363 15.2657C74.6732 15.2027 74.6367 15.1343 74.6185 15.0814C74.6019 15.0332 74.6045 15.0098 74.6045 15.0273H76.6045ZM76.1505 13.8515C75.8155 13.5165 75.3922 13.3975 75.0039 13.3975V15.3975C75.0009 15.3975 74.9644 15.397 74.9087 15.3766C74.8494 15.3549 74.788 15.3175 74.7363 15.2657L76.1505 13.8515ZM75.0039 13.3975C74.3133 13.3975 73.7086 13.7593 73.2194 14.1852C72.7137 14.6255 72.2042 15.2448 71.6877 16.0017L73.3397 17.1291C73.8094 16.4407 74.2082 15.9761 74.5326 15.6937C74.8734 15.397 75.0207 15.3975 75.0039 15.3975V13.3975ZM71.6906 15.9974C71.1828 16.7332 70.7572 17.4724 70.4177 18.2151L72.2366 19.0466C72.5221 18.4221 72.8875 17.7843 73.3367 17.1334L71.6906 15.9974ZM70.42 18.2101C70.083 18.9366 69.7172 19.9173 69.3215 21.1341L71.2234 21.7526C71.609 20.5671 71.9463 19.6728 72.2343 19.0516L70.42 18.2101ZM69.3238 21.1271L69.1919 21.5226L71.0893 22.1551L71.2211 21.7596L69.3238 21.1271ZM69.8415 20.8846L68.8601 21.1923L69.4583 23.1007L70.4397 22.7931L69.8415 20.8846Z" fill="black"/>
<path d="M26 14.6701C24.275 17.6961 21.0191 19.7362 17.2868 19.7362C11.7514 19.7362 7.26414 15.2489 7.26414 9.71359C7.26414 5.98097 9.30459 2.72492 12.3309 1C5.97341 1.60279 1 6.95648 1 13.4718C1 20.3909 6.6091 26 13.5283 26C20.0433 26 25.3967 21.0271 26 14.6701Z" stroke="#58A786" stroke-width="2" stroke-linecap="round" stroke-linejoin="round"/>
<path d="M22.0879 9.11614C22.7546 9.50104 22.7546 10.4633 22.0879 10.8482L15.1925 14.8292C14.5259 15.2141 13.6925 14.733 13.6925 13.9632L13.6925 6.00112C13.6925 5.23132 14.5259 4.7502 15.1925 5.1351L22.0879 9.11614Z" fill="#67AC9F"/>
</svg>
