<svg width="85" height="29" viewBox="0 0 85 29" fill="none" xmlns="http://www.w3.org/2000/svg">
<path d="M49.0361 23H47.6299L50.7207 8.21973L50.8232 7.70703C50.8916 7.3457 50.9258 7.09668 50.9258 6.95996C50.9258 6.77441 50.877 6.62305 50.7793 6.50586C50.6816 6.37891 50.5449 6.31543 50.3691 6.31543C50.0957 6.31543 49.7881 6.48145 49.4463 6.81348C49.1045 7.14551 48.6748 7.70215 48.1572 8.4834C47.3564 9.6748 46.4824 11.3301 45.5352 13.4492C44.793 15.1191 44.1582 16.7451 43.6309 18.3271C43.1133 19.8994 42.6885 21.457 42.3564 23H41.1406L44.5391 7.0918C44.6465 6.59375 44.7002 6.20312 44.7002 5.91992C44.7002 5.79297 44.6758 5.6709 44.627 5.55371C44.5781 5.43652 44.5098 5.34863 44.4219 5.29004C44.3438 5.23145 44.251 5.20215 44.1436 5.20215C43.6846 5.20215 43.123 5.65137 42.459 6.5498C41.7949 7.43848 41.0088 8.8252 40.1006 10.71C39.6709 11.5596 39.2559 12.4482 38.8555 13.376C38.4551 14.3037 38.0986 15.168 37.7861 15.9688C37.4736 16.7695 37.1221 17.7461 36.7314 18.8984C36.165 20.5781 35.7549 21.9453 35.501 23H34.2705L34.3145 22.7949L34.9443 20.29C35.1689 19.333 35.3643 18.4834 35.5303 17.7412C36.3018 14.2451 36.8682 11.3887 37.2295 9.17188C37.5322 7.43359 37.6836 6.17871 37.6836 5.40723C37.6836 4.84082 37.5957 4.40625 37.4199 4.10352C37.2539 3.79102 37.0195 3.63477 36.7168 3.63477C35.9746 3.63477 35.3154 4.62109 34.7393 6.59375C34.3779 7.83398 34.0996 9.17188 33.9043 10.6074L32.8057 9.88965C32.9717 8.62988 33.2451 7.49219 33.626 6.47656C34.0166 5.46094 34.4756 4.66016 35.0029 4.07422C35.54 3.47852 36.082 3.18066 36.6289 3.18066C37.2539 3.18066 37.7422 3.5127 38.0938 4.17676C38.4551 4.84082 38.6357 5.74902 38.6357 6.90137C38.6357 7.86816 38.5479 8.9668 38.3721 10.1973C38.3232 10.5586 38.167 11.4766 37.9033 12.9512L37.3174 16.1445L37.4053 15.8662C38.1084 13.9521 39.1289 11.6963 40.4668 9.09863C41.3066 7.4873 42.083 6.27148 42.7959 5.45117C43.5186 4.62109 44.1729 4.20605 44.7588 4.20605C45.1299 4.20605 45.4375 4.35254 45.6816 4.64551C45.9258 4.92871 46.0479 5.29492 46.0479 5.74414C46.0479 6.20312 45.9551 6.86719 45.7695 7.73633L44.0703 15.8516C44.1973 15.4902 44.4902 14.7969 44.9492 13.7715C46.2871 10.8027 47.4297 8.66406 48.377 7.35547C49.3242 6.03711 50.1982 5.37793 50.999 5.37793C51.3994 5.37793 51.7168 5.51953 51.9512 5.80273C52.1953 6.07617 52.3174 6.44238 52.3174 6.90137C52.3174 7.27246 52.2344 7.83398 52.0684 8.58594L49.0361 23ZM52.4346 20.1875C52.4346 19.3086 52.6689 18.4346 53.1377 17.5654C53.6162 16.6865 54.2314 15.9736 54.9834 15.4268C55.7354 14.8799 56.502 14.6064 57.2832 14.6064C58.1035 14.6064 58.7627 14.8799 59.2607 15.4268C59.7686 15.9639 60.0225 16.6621 60.0225 17.5215C60.0225 18.459 59.7881 19.3672 59.3193 20.2461C58.8604 21.125 58.25 21.8477 57.4883 22.4141C56.7363 22.9707 55.9746 23.249 55.2031 23.249C54.373 23.249 53.7041 22.9707 53.1963 22.4141C52.6885 21.8477 52.4346 21.1055 52.4346 20.1875ZM58.7041 16.9648C58.7041 16.3789 58.5576 15.8955 58.2646 15.5146C57.9814 15.1338 57.6152 14.9434 57.166 14.9434C56.7559 14.9434 56.3604 15.0752 55.9795 15.3389C55.6084 15.6025 55.2666 15.9883 54.9541 16.4961C54.6025 17.082 54.3096 17.7656 54.0752 18.5469C53.8506 19.3281 53.7383 20.0215 53.7383 20.627C53.7383 21.3496 53.8799 21.9062 54.1631 22.2969C54.4463 22.6875 54.8516 22.8828 55.3789 22.8828C56.2285 22.8828 56.9756 22.292 57.6201 21.1104C57.9521 20.5049 58.2158 19.8262 58.4111 19.0742C58.6064 18.3223 58.7041 17.6191 58.7041 16.9648ZM61.2236 20.1875C61.2236 19.3086 61.458 18.4346 61.9268 17.5654C62.4053 16.6865 63.0205 15.9736 63.7725 15.4268C64.5244 14.8799 65.291 14.6064 66.0723 14.6064C66.8926 14.6064 67.5518 14.8799 68.0498 15.4268C68.5576 15.9639 68.8115 16.6621 68.8115 17.5215C68.8115 18.459 68.5771 19.3672 68.1084 20.2461C67.6494 21.125 67.0391 21.8477 66.2773 22.4141C65.5254 22.9707 64.7637 23.249 63.9922 23.249C63.1621 23.249 62.4932 22.9707 61.9854 22.4141C61.4775 21.8477 61.2236 21.1055 61.2236 20.1875ZM67.4932 16.9648C67.4932 16.3789 67.3467 15.8955 67.0537 15.5146C66.7705 15.1338 66.4043 14.9434 65.9551 14.9434C65.5449 14.9434 65.1494 15.0752 64.7686 15.3389C64.3975 15.6025 64.0557 15.9883 63.7432 16.4961C63.3916 17.082 63.0986 17.7656 62.8643 18.5469C62.6396 19.3281 62.5273 20.0215 62.5273 20.627C62.5273 21.3496 62.6689 21.9062 62.9521 22.2969C63.2354 22.6875 63.6406 22.8828 64.168 22.8828C65.0176 22.8828 65.7646 22.292 66.4092 21.1104C66.7412 20.5049 67.0049 19.8262 67.2002 19.0742C67.3955 18.3223 67.4932 17.6191 67.4932 16.9648ZM70.1592 23.1465L71.7119 15.0312L73.1035 14.4307L71.8438 19.8066C72.6543 18.0977 73.46 16.7988 74.2607 15.9102C75.0615 15.0215 75.8281 14.5771 76.5605 14.5771C76.9219 14.5771 77.2148 14.6992 77.4395 14.9434C77.6641 15.1777 77.7764 15.4951 77.7764 15.8955C77.7764 16.1201 77.7227 16.4375 77.6152 16.8477L77.4688 17.4629L77.0293 19.25L76.8828 19.8213C76.7363 20.4072 76.6631 20.8564 76.6631 21.1689C76.6631 21.4814 76.7168 21.7354 76.8242 21.9307C76.9316 22.1162 77.0732 22.209 77.249 22.209C77.5518 22.209 78.0352 21.8477 78.6992 21.125L78.9336 21.3301L78.7871 21.4912C78.2305 22.1455 77.8203 22.5898 77.5566 22.8242C77.293 23.0488 77.0488 23.1611 76.8242 23.1611C76.5215 23.1611 76.2627 23.0098 76.0479 22.707C75.8428 22.3945 75.7402 22.0088 75.7402 21.5498C75.7402 21.2373 75.7988 20.7734 75.916 20.1582L76.4873 17.0527C76.5654 16.5645 76.6045 16.2227 76.6045 16.0273C76.6045 15.8223 76.5508 15.666 76.4434 15.5586C76.3359 15.4512 76.1895 15.3975 76.0039 15.3975C75.3301 15.3975 74.5 16.1201 73.5137 17.5654C73.0352 18.2588 72.6396 18.9473 72.3271 19.6309C72.0146 20.3047 71.6631 21.2422 71.2725 22.4434L71.1406 22.8389L70.1592 23.1465Z" fill="black"/>
<path d="M49.0361 23V24H49.8477L50.0147 23.2059L49.0361 23ZM47.6299 23L46.6511 22.7953L46.3991 24H47.6299V23ZM50.7207 8.21973L51.6996 8.42442L51.7013 8.41584L50.7207 8.21973ZM50.8232 7.70703L51.8039 7.90316L51.8058 7.89292L50.8232 7.70703ZM50.7793 6.50586L49.9867 7.11557L49.9986 7.13105L50.0111 7.14604L50.7793 6.50586ZM49.4463 6.81348L48.7495 6.0962L49.4463 6.81348ZM48.1572 8.4834L48.9872 9.04125L48.9909 9.03569L48.1572 8.4834ZM45.5352 13.4492L44.6222 13.0411L44.6213 13.0431L45.5352 13.4492ZM43.6309 18.3271L42.6822 18.0109L42.681 18.0145L43.6309 18.3271ZM42.3564 23V24H43.1641L43.3341 23.2104L42.3564 23ZM41.1406 23L40.1627 22.7911L39.9044 24H41.1406V23ZM44.5391 7.0918L43.5615 6.88096L43.5611 6.88288L44.5391 7.0918ZM44.4219 5.29004L43.8219 6.09004L43.8441 6.10669L43.8672 6.12209L44.4219 5.29004ZM42.459 6.5498L43.2601 7.1484L43.2632 7.1442L42.459 6.5498ZM40.1006 10.71L40.993 11.1613L40.9973 11.1527L41.0015 11.1441L40.1006 10.71ZM37.7861 15.9688L36.8546 15.6052L37.7861 15.9688ZM36.7314 18.8984L35.7844 18.5774L35.7839 18.5789L36.7314 18.8984ZM35.501 23V24H36.2888L36.4732 23.2341L35.501 23ZM34.2705 23L33.2927 22.7905L33.0335 24H34.2705V23ZM34.3145 22.7949L33.3446 22.5511L33.3403 22.5682L33.3367 22.5854L34.3145 22.7949ZM34.9443 20.29L35.9141 20.5339L35.9161 20.5262L35.9179 20.5185L34.9443 20.29ZM35.5303 17.7412L36.5062 17.9595L36.5068 17.9567L35.5303 17.7412ZM37.2295 9.17188L36.2443 9.00029L36.2425 9.011L37.2295 9.17188ZM37.4199 4.10352L36.5368 4.57267L36.5457 4.58933L36.5551 4.60565L37.4199 4.10352ZM34.7393 6.59375L33.7794 6.31339L33.7792 6.31404L34.7393 6.59375ZM33.9043 10.6074L33.3573 11.4446L34.6819 12.3099L34.8952 10.7422L33.9043 10.6074ZM32.8057 9.88965L31.8142 9.759L31.732 10.3827L32.2587 10.7268L32.8057 9.88965ZM33.626 6.47656L32.6926 6.11757L32.6896 6.12544L33.626 6.47656ZM35.0029 4.07422L34.2602 3.40458L34.2596 3.40525L35.0029 4.07422ZM38.0938 4.17676L37.2099 4.64468L37.2154 4.6547L38.0938 4.17676ZM38.3721 10.1973L37.3821 10.0558L37.3811 10.0633L38.3721 10.1973ZM37.9033 12.9512L38.8869 13.1316L38.8877 13.1272L37.9033 12.9512ZM37.3174 16.1445L36.3338 15.9641L38.271 16.4457L37.3174 16.1445ZM37.4053 15.8662L36.4666 15.5214L36.4586 15.5431L36.4517 15.5651L37.4053 15.8662ZM40.4668 9.09863L39.58 8.63643L39.5778 8.64076L40.4668 9.09863ZM42.7959 5.45117L42.0417 4.79455L42.0411 4.79522L42.7959 5.45117ZM45.6816 4.64551L44.9134 5.28569L44.9188 5.29212L44.9242 5.29845L45.6816 4.64551ZM45.7695 7.73633L44.7916 7.52755L44.7908 7.53139L45.7695 7.73633ZM44.0703 15.8516L43.0915 15.6466L45.0138 16.183L44.0703 15.8516ZM44.9492 13.7715L44.0375 13.3606L44.0365 13.3629L44.9492 13.7715ZM48.377 7.35547L49.187 7.94185L49.1891 7.93898L48.377 7.35547ZM51.9512 5.80273L51.1808 6.4403L51.1927 6.45476L51.2052 6.46875L51.9512 5.80273ZM52.0684 8.58594L51.0918 8.37034L51.0898 8.38008L52.0684 8.58594ZM49.0361 22H47.6299V24H49.0361V22ZM48.6087 23.2047L51.6995 8.42442L49.7419 8.01504L46.6511 22.7953L48.6087 23.2047ZM51.7013 8.41584L51.8038 7.90315L49.8427 7.51092L49.7401 8.02361L51.7013 8.41584ZM51.8058 7.89292C51.8726 7.53968 51.9258 7.20335 51.9258 6.95996H49.9258C49.9258 6.95986 49.9245 7.00318 49.9094 7.11329C49.8954 7.2154 49.873 7.35022 49.8407 7.52114L51.8058 7.89292ZM51.9258 6.95996C51.9258 6.59301 51.8254 6.19918 51.5475 5.86567L50.0111 7.14604C49.9745 7.10216 49.9506 7.05509 49.9375 7.01428C49.925 6.97583 49.9258 6.95446 49.9258 6.95996H51.9258ZM51.5719 5.89615C51.2647 5.49679 50.8206 5.31543 50.3691 5.31543V7.31543C50.3356 7.31543 50.2662 7.30893 50.1824 7.27005C50.0957 7.22979 50.0296 7.17143 49.9867 7.11557L51.5719 5.89615ZM50.3691 5.31543C49.6996 5.31543 49.15 5.70715 48.7495 6.0962L50.1431 7.53076C50.2701 7.40739 50.3589 7.34661 50.4083 7.31996C50.4558 7.29432 50.4381 7.31543 50.3691 7.31543V5.31543ZM48.7495 6.0962C48.328 6.50562 47.8505 7.13575 47.3236 7.93111L48.9909 9.03569C49.4991 8.26854 49.8809 7.78539 50.1431 7.53076L48.7495 6.0962ZM47.3273 7.92556C46.4813 9.18426 45.5804 10.8975 44.6222 13.0411L46.4481 13.8573C47.3844 11.7627 48.2316 10.1653 48.9872 9.04123L47.3273 7.92556ZM44.6213 13.0431C43.8673 14.7396 43.2206 16.3956 42.6822 18.0109L44.5795 18.6434C45.0958 17.0946 45.7186 15.4986 46.449 13.8554L44.6213 13.0431ZM42.681 18.0145C42.1529 19.6187 41.7186 21.2105 41.3788 22.7896L43.3341 23.2104C43.6583 21.7036 44.0737 20.1801 44.5807 18.6398L42.681 18.0145ZM42.3564 22H41.1406V24H42.3564V22ZM42.1186 23.2089L45.517 7.30071L43.5611 6.88288L40.1627 22.7911L42.1186 23.2089ZM45.5166 7.30263C45.6291 6.78087 45.7002 6.30897 45.7002 5.91992H43.7002C43.7002 6.09728 43.6638 6.40663 43.5615 6.88096L45.5166 7.30263ZM45.7002 5.91992C45.7002 5.66094 45.6496 5.40815 45.55 5.1691L43.7039 5.93833C43.7035 5.93734 43.7023 5.93408 43.7013 5.92927C43.7003 5.92446 43.7002 5.92099 43.7002 5.91992H45.7002ZM45.55 5.1691C45.4408 4.90698 45.2594 4.64655 44.9766 4.45799L43.8672 6.12209C43.7601 6.05071 43.7154 5.96606 43.7039 5.93833L45.55 5.1691ZM45.0219 4.49004C44.7532 4.28856 44.4445 4.20215 44.1436 4.20215V6.20215C44.1057 6.20215 44.0532 6.19684 43.9926 6.1777C43.931 6.15825 43.8727 6.12817 43.8219 6.09004L45.0219 4.49004ZM44.1436 4.20215C43.5899 4.20215 43.117 4.46741 42.7535 4.75819C42.3786 5.05811 42.0133 5.47042 41.6548 5.95541L43.2632 7.1442C43.5687 6.73075 43.8162 6.46924 44.0029 6.31993C44.2009 6.1615 44.2382 6.20215 44.1436 6.20215V4.20215ZM41.6579 5.95121C40.9353 6.91832 40.1159 8.37447 39.1997 10.2759L41.0015 11.1441C41.9016 9.27592 42.6546 7.95863 43.26 7.1484L41.6579 5.95121ZM39.2082 10.2586C38.7688 11.1274 38.3453 12.0345 37.9373 12.9797L39.7736 13.7722C40.1665 12.862 40.5729 11.9917 40.993 11.1613L39.2082 10.2586ZM37.9373 12.9797C37.533 13.9165 37.172 14.7917 36.8546 15.6052L38.7177 16.3323C39.0253 15.5442 39.3771 14.691 39.7736 13.7722L37.9373 12.9797ZM36.8546 15.6052C36.5348 16.4245 36.178 17.4161 35.7844 18.5774L37.6785 19.2195C38.0661 18.0761 38.4124 17.1146 38.7177 16.3323L36.8546 15.6052ZM35.7839 18.5789C35.2131 20.2715 34.7925 21.6702 34.5288 22.7659L36.4732 23.2341C36.7172 22.2204 37.117 20.8847 37.679 19.218L35.7839 18.5789ZM35.501 22H34.2705V24H35.501V22ZM35.2483 23.2095L35.2923 23.0045L33.3367 22.5854L33.2927 22.7905L35.2483 23.2095ZM35.2843 23.0388L35.9141 20.5339L33.9745 20.0462L33.3446 22.5511L35.2843 23.0388ZM35.9179 20.5185C36.1431 19.559 36.3392 18.7059 36.5062 17.9595L34.5544 17.5229C34.3893 18.2609 34.1948 19.107 33.9708 20.0616L35.9179 20.5185ZM36.5068 17.9567C37.2802 14.4517 37.8509 11.5753 38.2165 9.33275L36.2425 9.011C35.8854 11.2021 35.3233 14.0385 34.5538 17.5257L36.5068 17.9567ZM38.2147 9.34345C38.518 7.60183 38.6836 6.27263 38.6836 5.40723H36.6836C36.6836 6.08479 36.5465 7.26536 36.2443 9.0003L38.2147 9.34345ZM38.6836 5.40723C38.6836 4.76237 38.5879 4.12346 38.2847 3.60138L36.5551 4.60565C36.6036 4.68904 36.6836 4.91927 36.6836 5.40723H38.6836ZM38.303 3.63436C37.9989 3.06193 37.4593 2.63477 36.7168 2.63477V4.63477C36.7057 4.63477 36.6825 4.63321 36.6517 4.62426C36.6204 4.61514 36.5905 4.60102 36.5649 4.584C36.5134 4.54962 36.512 4.52595 36.5368 4.57267L38.303 3.63436ZM36.7168 2.63477C35.8483 2.63477 35.2351 3.21921 34.8344 3.81886C34.4215 4.43668 34.0784 5.28972 33.7794 6.31339L35.6992 6.87411C35.9763 5.92513 36.2509 5.29867 36.4972 4.93016C36.7556 4.54348 36.8432 4.63477 36.7168 4.63477V2.63477ZM33.7792 6.31404C33.4025 7.60705 33.1146 8.99387 32.9134 10.4726L34.8952 10.7422C35.0846 9.34988 35.3534 8.06092 35.6993 6.87346L33.7792 6.31404ZM34.4512 9.77026L33.3526 9.05248L32.2587 10.7268L33.3573 11.4446L34.4512 9.77026ZM33.7971 10.0203C33.9548 8.82339 34.2122 7.76125 34.5623 6.82769L32.6896 6.12544C32.278 7.22312 31.9885 8.43637 31.8142 9.759L33.7971 10.0203ZM34.5593 6.83554C34.9216 5.89363 35.3253 5.21089 35.7462 4.74318L34.2596 3.40525C33.6259 4.10942 33.1116 5.02824 32.6926 6.11758L34.5593 6.83554ZM35.7456 4.74386C36.1828 4.25899 36.476 4.18066 36.6289 4.18066V2.18066C35.688 2.18066 34.8973 2.69804 34.2602 3.40458L35.7456 4.74386ZM36.6289 4.18066C36.8015 4.18066 36.9897 4.22854 37.21 4.64465L38.9775 3.70887C38.4947 2.79685 37.7063 2.18066 36.6289 2.18066V4.18066ZM37.2154 4.6547C37.4658 5.11495 37.6357 5.83585 37.6357 6.90137H39.6357C39.6357 5.66219 39.4444 4.56669 38.9721 3.69881L37.2154 4.6547ZM37.6357 6.90137C37.6357 7.80972 37.553 8.85973 37.3821 10.0558L39.362 10.3387C39.5427 9.07386 39.6357 7.92661 39.6357 6.90137H37.6357ZM37.3811 10.0633C37.3358 10.3987 37.1841 11.2923 36.9189 12.7752L38.8877 13.1272C39.1499 11.6608 39.3107 10.7185 39.3631 10.3312L37.3811 10.0633ZM36.9197 12.7707L36.3338 15.9641L38.301 16.325L38.8869 13.1316L36.9197 12.7707ZM38.271 16.4457L38.3589 16.1673L36.4517 15.5651L36.3638 15.8434L38.271 16.4457ZM38.3439 16.211C39.0282 14.3482 40.0295 12.1318 41.3558 9.55651L39.5778 8.64076C38.2284 11.2608 37.1886 13.5561 36.4666 15.5214L38.3439 16.211ZM41.3536 9.56083C42.1779 7.97928 42.9121 6.84197 43.5507 6.10713L42.0411 4.79522C41.2539 5.701 40.4354 6.99533 39.58 8.63643L41.3536 9.56083ZM43.5501 6.10779C44.2353 5.32073 44.6331 5.20605 44.7588 5.20605V3.20605C43.7126 3.20605 42.8018 3.92146 42.0417 4.79455L43.5501 6.10779ZM44.7588 5.20605C44.809 5.20605 44.83 5.21504 44.8379 5.21878C44.8465 5.22288 44.8727 5.23687 44.9134 5.28569L46.4499 4.00532C46.0218 3.49164 45.436 3.20605 44.7588 3.20605V5.20605ZM44.9242 5.29845C44.9818 5.36518 45.0479 5.48408 45.0479 5.74414H47.0479C47.0479 5.10577 46.8698 4.49224 46.4391 3.99257L44.9242 5.29845ZM45.0479 5.74414C45.0479 6.09504 44.9734 6.6759 44.7916 7.52755L46.7475 7.94511C46.9368 7.05848 47.0479 6.31121 47.0479 5.74414H45.0479ZM44.7908 7.53139L43.0915 15.6466L45.0491 16.0565L46.7483 7.94127L44.7908 7.53139ZM45.0138 16.183C45.1247 15.8672 45.4004 15.2111 45.862 14.18L44.0365 13.3629C43.5801 14.3826 43.2698 15.1133 43.1269 15.5201L45.0138 16.183ZM45.8609 14.1823C47.193 11.2264 48.3019 9.16455 49.187 7.94184L47.5669 6.7691C46.5575 8.16358 45.3812 10.3791 44.0375 13.3606L45.8609 14.1823ZM49.1891 7.93898C49.6294 7.3261 50.0172 6.918 50.3451 6.67071C50.6713 6.42465 50.8832 6.37793 50.999 6.37793V4.37793C50.3141 4.37793 49.6886 4.6608 49.1408 5.07392C48.5946 5.48581 48.0717 6.06648 47.5648 6.77196L49.1891 7.93898ZM50.999 6.37793C51.0801 6.37793 51.1175 6.39183 51.1299 6.39736C51.1399 6.40182 51.1559 6.41028 51.1808 6.4403L52.7216 5.16517C52.2788 4.6301 51.6672 4.37793 50.999 4.37793V6.37793ZM51.2052 6.46875C51.2475 6.51605 51.3174 6.62377 51.3174 6.90137H53.3174C53.3174 6.261 53.1432 5.63629 52.6971 5.13672L51.2052 6.46875ZM51.3174 6.90137C51.3174 7.15778 51.2552 7.63056 51.0919 8.37035L53.0448 8.80152C53.2135 8.0374 53.3174 7.38714 53.3174 6.90137H51.3174ZM51.0898 8.38008L48.0576 22.7941L50.0147 23.2059L53.0469 8.7918L51.0898 8.38008ZM53.1377 17.5654L52.2594 17.0873L52.2575 17.0907L53.1377 17.5654ZM59.2607 15.4268L58.5214 16.1001L58.5277 16.107L58.5341 16.1138L59.2607 15.4268ZM59.3193 20.2461L58.4369 19.7755L58.4329 19.7832L59.3193 20.2461ZM57.4883 22.4141L58.0833 23.2178L58.085 23.2165L57.4883 22.4141ZM53.1963 22.4141L52.4517 23.0816L52.4575 23.088L53.1963 22.4141ZM58.2646 15.5146L57.4622 16.1114L57.4671 16.1179L57.472 16.1244L58.2646 15.5146ZM55.9795 15.3389L55.4102 14.5166L55.4003 14.5237L55.9795 15.3389ZM54.9541 16.4961L54.1024 15.972L54.0966 15.9816L54.9541 16.4961ZM54.0752 18.5469L53.1173 18.2595L53.1141 18.2706L54.0752 18.5469ZM57.6201 21.1104L56.7433 20.6295L56.7422 20.6315L57.6201 21.1104ZM53.4346 20.1875C53.4346 19.4939 53.6179 18.7817 54.0178 18.0401L52.2575 17.0907C51.72 18.0874 51.4346 19.1233 51.4346 20.1875H53.4346ZM54.016 18.0436C54.429 17.2849 54.9486 16.6885 55.5716 16.2355L54.3952 14.618C53.5143 15.2587 52.8034 16.0881 52.2594 17.0873L54.016 18.0436ZM55.5716 16.2355C56.186 15.7886 56.7511 15.6064 57.2832 15.6064V13.6064C56.2528 13.6064 55.2847 13.9711 54.3952 14.618L55.5716 16.2355ZM57.2832 15.6064C57.8562 15.6064 58.2347 15.7853 58.5214 16.1001L60.0001 14.7534C59.2907 13.9745 58.3508 13.6064 57.2832 13.6064V15.6064ZM58.5341 16.1138C58.838 16.4352 59.0225 16.8731 59.0225 17.5215H61.0225C61.0225 16.4511 60.6991 15.4925 59.9874 14.7397L58.5341 16.1138ZM59.0225 17.5215C59.0225 18.2846 58.8335 19.0321 58.437 19.7755L60.2017 20.7167C60.7427 19.7023 61.0225 18.6334 61.0225 17.5215H59.0225ZM58.4329 19.7832C58.0405 20.5346 57.527 21.1391 56.8916 21.6116L58.085 23.2165C58.973 22.5562 59.6802 21.7154 60.2057 20.709L58.4329 19.7832ZM56.8933 21.6103C56.2761 22.0672 55.718 22.249 55.2031 22.249V24.249C56.2312 24.249 57.1966 23.8742 58.0833 23.2178L56.8933 21.6103ZM55.2031 22.249C54.6223 22.249 54.2329 22.0666 53.9351 21.7401L52.4575 23.088C53.1753 23.8748 54.1238 24.249 55.2031 24.249V22.249ZM53.9409 21.7465C53.6301 21.3999 53.4346 20.9126 53.4346 20.1875H51.4346C51.4346 21.2983 51.7469 22.2955 52.4517 23.0816L53.9409 21.7465ZM59.7041 16.9648C59.7041 16.208 59.5121 15.4963 59.0573 14.9049L57.472 16.1244C57.6031 16.2947 57.7041 16.5498 57.7041 16.9648H59.7041ZM59.0671 14.9179C58.6077 14.3001 57.9518 13.9434 57.166 13.9434V15.9434C57.2787 15.9434 57.3552 15.9675 57.4622 16.1114L59.0671 14.9179ZM57.166 13.9434C56.5268 13.9434 55.9359 14.1528 55.4103 14.5167L56.5487 16.1611C56.7848 15.9976 56.985 15.9434 57.166 15.9434V13.9434ZM55.4003 14.5237C54.8915 14.8852 54.4645 15.3836 54.1024 15.972L55.8058 17.0202C56.0687 16.593 56.3253 16.3199 56.5587 16.154L55.4003 14.5237ZM54.0966 15.9816C53.695 16.651 53.3712 17.4135 53.1174 18.2595L55.033 18.8342C55.248 18.1177 55.5101 17.5131 55.8116 17.0106L54.0966 15.9816ZM53.1141 18.2706C52.8719 19.113 52.7383 19.9023 52.7383 20.627H54.7383C54.7383 20.1407 54.8293 19.5432 55.0363 18.8232L53.1141 18.2706ZM52.7383 20.627C52.7383 21.461 52.8987 22.2566 53.3535 22.8838L54.9727 21.7099C54.861 21.5559 54.7383 21.2382 54.7383 20.627H52.7383ZM53.3535 22.8838C53.8442 23.5608 54.5658 23.8828 55.3789 23.8828V21.8828C55.1374 21.8828 55.0483 21.8142 54.9727 21.7099L53.3535 22.8838ZM55.3789 23.8828C56.7775 23.8828 57.7881 22.8907 58.498 21.5892L56.7422 20.6315C56.163 21.6933 55.6795 21.8828 55.3789 21.8828V23.8828ZM58.4969 21.5912C58.8733 20.9049 59.1655 20.1477 59.379 19.3256L57.4432 18.8228C57.2662 19.5046 57.031 20.1048 56.7433 20.6295L58.4969 21.5912ZM59.379 19.3256C59.5918 18.5064 59.7041 17.718 59.7041 16.9648H57.7041C57.7041 17.5202 57.6211 18.1381 57.4432 18.8228L59.379 19.3256ZM61.9268 17.5654L61.0485 17.0873L61.0466 17.0907L61.9268 17.5654ZM68.0498 15.4268L67.3105 16.1001L67.3167 16.107L67.3232 16.1138L68.0498 15.4268ZM68.1084 20.2461L67.226 19.7755L67.222 19.7832L68.1084 20.2461ZM66.2773 22.4141L66.8723 23.2178L66.874 23.2165L66.2773 22.4141ZM61.9854 22.4141L61.2408 23.0816L61.2466 23.088L61.9854 22.4141ZM67.0537 15.5146L66.2512 16.1114L66.2561 16.1179L66.2611 16.1244L67.0537 15.5146ZM64.7686 15.3389L64.1993 14.5166L64.1893 14.5237L64.7686 15.3389ZM63.7432 16.4961L62.8915 15.972L62.8857 15.9816L63.7432 16.4961ZM62.8643 18.5469L61.9064 18.2595L61.9032 18.2706L62.8643 18.5469ZM66.4092 21.1104L65.5324 20.6295L65.5313 20.6315L66.4092 21.1104ZM62.2236 20.1875C62.2236 19.4939 62.407 18.7817 62.8069 18.0401L61.0466 17.0907C60.5091 18.0874 60.2236 19.1233 60.2236 20.1875H62.2236ZM62.805 18.0436C63.2181 17.2849 63.7377 16.6885 64.3606 16.2355L63.1843 14.618C62.3033 15.2587 61.5925 16.0881 61.0485 17.0873L62.805 18.0436ZM64.3606 16.2355C64.9751 15.7886 65.5402 15.6064 66.0723 15.6064V13.6064C65.0418 13.6064 64.0738 13.9711 63.1843 14.618L64.3606 16.2355ZM66.0723 15.6064C66.6453 15.6064 67.0237 15.7853 67.3105 16.1001L68.7891 14.7534C68.0798 13.9745 67.1399 13.6064 66.0723 13.6064V15.6064ZM67.3232 16.1138C67.6271 16.4352 67.8115 16.8731 67.8115 17.5215H69.8115C69.8115 16.4511 69.4882 15.4925 68.7765 14.7397L67.3232 16.1138ZM67.8115 17.5215C67.8115 18.2846 67.6225 19.0321 67.226 19.7755L68.9908 20.7167C69.5318 19.7023 69.8115 18.6334 69.8115 17.5215H67.8115ZM67.222 19.7832C66.8296 20.5346 66.316 21.1391 65.6806 21.6116L66.874 23.2165C67.7621 22.5562 68.4693 21.7154 68.9948 20.709L67.222 19.7832ZM65.6824 21.6103C65.0651 22.0672 64.5071 22.249 63.9922 22.249V24.249C65.0203 24.249 65.9857 23.8742 66.8723 23.2178L65.6824 21.6103ZM63.9922 22.249C63.4114 22.249 63.022 22.0666 62.7241 21.7401L61.2466 23.088C61.9643 23.8748 62.9128 24.249 63.9922 24.249V22.249ZM62.7299 21.7465C62.4191 21.3999 62.2236 20.9126 62.2236 20.1875H60.2236C60.2236 21.2983 60.536 22.2955 61.2408 23.0816L62.7299 21.7465ZM68.4932 16.9648C68.4932 16.208 68.3012 15.4963 67.8463 14.9049L66.2611 16.1244C66.3922 16.2947 66.4932 16.5498 66.4932 16.9648H68.4932ZM67.8562 14.9179C67.3968 14.3001 66.7408 13.9434 65.9551 13.9434V15.9434C66.0678 15.9434 66.1443 15.9675 66.2512 16.1114L67.8562 14.9179ZM65.9551 13.9434C65.3158 13.9434 64.725 14.1528 64.1993 14.5167L65.3378 16.1611C65.5738 15.9976 65.774 15.9434 65.9551 15.9434V13.9434ZM64.1893 14.5237C63.6806 14.8852 63.2536 15.3836 62.8915 15.972L64.5948 17.0202C64.8577 16.593 65.1143 16.3199 65.3478 16.154L64.1893 14.5237ZM62.8857 15.9816C62.4841 16.651 62.1602 17.4135 61.9064 18.2595L63.8221 18.8342C64.037 18.1177 64.2991 17.5131 64.6007 17.0106L62.8857 15.9816ZM61.9032 18.2706C61.661 19.113 61.5273 19.9023 61.5273 20.627H63.5273C63.5273 20.1407 63.6183 19.5432 63.8253 18.8232L61.9032 18.2706ZM61.5273 20.627C61.5273 21.461 61.6878 22.2566 62.1425 22.8838L63.7618 21.7099C63.6501 21.5559 63.5273 21.2382 63.5273 20.627H61.5273ZM62.1425 22.8838C62.6333 23.5608 63.3548 23.8828 64.168 23.8828V21.8828C63.9264 21.8828 63.8374 21.8142 63.7618 21.7099L62.1425 22.8838ZM64.168 23.8828C65.5666 23.8828 66.5772 22.8907 67.2871 21.5892L65.5313 20.6315C64.9521 21.6933 64.4686 21.8828 64.168 21.8828V23.8828ZM67.286 21.5912C67.6623 20.9049 67.9545 20.1477 68.1681 19.3256L66.2323 18.8228C66.0552 19.5046 65.8201 20.1048 65.5324 20.6295L67.286 21.5912ZM68.1681 19.3256C68.3809 18.5064 68.4932 17.718 68.4932 16.9648H66.4932C66.4932 17.5202 66.4102 18.1381 66.2323 18.8228L68.1681 19.3256ZM70.1592 23.1465L69.177 22.9586L68.8628 24.6008L70.4583 24.1007L70.1592 23.1465ZM71.7119 15.0312L71.3157 14.1131L70.8293 14.323L70.7297 14.8433L71.7119 15.0312ZM73.1035 14.4307L74.0771 14.6588L74.5301 12.7258L72.7073 13.5125L73.1035 14.4307ZM71.8438 19.8066L70.8701 19.5785L72.7473 20.2352L71.8438 19.8066ZM74.2607 15.9102L73.5179 15.2407L74.2607 15.9102ZM77.4395 14.9434L76.7035 15.6204L76.7104 15.6279L76.7175 15.6353L77.4395 14.9434ZM77.6152 16.8477L76.6479 16.5943L76.645 16.6051L76.6424 16.616L77.6152 16.8477ZM77.4688 17.4629L78.4398 17.7017L78.4416 17.6945L77.4688 17.4629ZM77.0293 19.25L77.998 19.4984L78.0004 19.4888L77.0293 19.25ZM76.8828 19.8213L75.9141 19.5729L75.9127 19.5788L76.8828 19.8213ZM76.8242 21.9307L75.948 22.4126L75.9533 22.4222L75.9588 22.4317L76.8242 21.9307ZM78.6992 21.125L79.3577 20.3724L78.6232 19.7298L77.9629 20.4484L78.6992 21.125ZM78.9336 21.3301L79.6735 22.0028L80.3591 21.2486L79.5921 20.5775L78.9336 21.3301ZM78.7871 21.4912L78.0472 20.8185L78.0361 20.8307L78.0255 20.8432L78.7871 21.4912ZM77.5566 22.8242L78.2051 23.5855L78.2131 23.5786L78.221 23.5716L77.5566 22.8242ZM76.0479 22.707L75.2118 23.2557L75.2218 23.2709L75.2323 23.2858L76.0479 22.707ZM75.916 20.1582L76.8984 20.3453L76.8995 20.3391L75.916 20.1582ZM76.4873 17.0527L77.4708 17.2337L77.4729 17.2222L77.4747 17.2107L76.4873 17.0527ZM76.4434 15.5586L75.7363 16.2657L76.4434 15.5586ZM73.5137 17.5654L74.3367 18.1334L74.3397 18.1291L73.5137 17.5654ZM72.3271 19.6309L73.2344 20.0516L73.2366 20.0466L72.3271 19.6309ZM71.2725 22.4434L72.2212 22.7596L72.2234 22.7526L71.2725 22.4434ZM71.1406 22.8389L71.4397 23.7931L71.9276 23.6402L72.0893 23.1551L71.1406 22.8389ZM71.1414 23.3344L72.6941 15.2192L70.7297 14.8433L69.177 22.9586L71.1414 23.3344ZM72.1082 15.9494L73.4998 15.3488L72.7073 13.5125L71.3157 14.1131L72.1082 15.9494ZM72.1299 14.2025L70.8701 19.5785L72.8174 20.0348L74.0771 14.6588L72.1299 14.2025ZM72.7473 20.2352C73.5374 18.5693 74.2942 17.3669 75.0036 16.5796L73.5179 15.2407C72.6258 16.2307 71.7712 17.6261 70.9402 19.3781L72.7473 20.2352ZM75.0036 16.5796C75.7312 15.7721 76.2481 15.5771 76.5605 15.5771V13.5771C75.4082 13.5771 74.3918 14.2708 73.5179 15.2407L75.0036 16.5796ZM76.5605 15.5771C76.6274 15.5771 76.6578 15.5881 76.6667 15.5918C76.6736 15.5947 76.6846 15.5999 76.7035 15.6204L78.1754 14.2663C77.7433 13.7967 77.1737 13.5771 76.5605 13.5771V15.5771ZM76.7175 15.6353C76.7241 15.6422 76.7764 15.6895 76.7764 15.8955H78.7764C78.7764 15.3007 78.604 14.7132 78.1614 14.2515L76.7175 15.6353ZM76.7764 15.8955C76.7764 15.9896 76.7492 16.2075 76.6479 16.5943L78.5826 17.101C78.6961 16.6675 78.7764 16.2506 78.7764 15.8955H76.7764ZM76.6424 16.616L76.4959 17.2313L78.4416 17.6945L78.588 17.0793L76.6424 16.616ZM76.4977 17.2241L76.0582 19.0112L78.0004 19.4888L78.4398 17.7017L76.4977 17.2241ZM76.0606 19.0016L75.9141 19.5729L77.8515 20.0697L77.998 19.4984L76.0606 19.0016ZM75.9127 19.5788C75.7611 20.1849 75.6631 20.7305 75.6631 21.1689H77.6631C77.6631 20.9824 77.7115 20.6295 77.853 20.0638L75.9127 19.5788ZM75.6631 21.1689C75.6631 21.5859 75.7333 22.0222 75.948 22.4126L77.7004 21.4487C77.7011 21.45 77.6915 21.433 77.6817 21.3868C77.6718 21.34 77.6631 21.2692 77.6631 21.1689H75.6631ZM75.9588 22.4317C76.1989 22.8464 76.6331 23.209 77.249 23.209V21.209C77.3479 21.209 77.4605 21.2384 77.559 21.3029C77.6488 21.3618 77.6855 21.4224 77.6896 21.4296L75.9588 22.4317ZM77.249 23.209C77.7448 23.209 78.1666 22.9413 78.4373 22.739C78.7496 22.5055 79.0841 22.1841 79.4355 21.8016L77.9629 20.4484C77.6503 20.7886 77.411 21.0091 77.2399 21.137C77.1552 21.2004 77.1071 21.2258 77.0923 21.2326C77.0729 21.2415 77.1325 21.209 77.249 21.209V23.209ZM78.0407 21.8776L78.2751 22.0827L79.5921 20.5775L79.3577 20.3724L78.0407 21.8776ZM78.1937 20.6574L78.0472 20.8185L79.527 22.1639L79.6735 22.0028L78.1937 20.6574ZM78.0255 20.8432C77.4684 21.498 77.0982 21.8937 76.8923 22.0768L78.221 23.5716C78.5424 23.286 78.9925 22.793 79.5488 22.1392L78.0255 20.8432ZM76.9082 22.063C76.8271 22.132 76.7767 22.1597 76.7579 22.1684C76.7415 22.1759 76.7667 22.1611 76.8242 22.1611V24.1611C77.3859 24.1611 77.8542 23.8844 78.2051 23.5855L76.9082 22.063ZM76.8242 22.1611C76.8328 22.1611 76.8476 22.1623 76.8657 22.1672C76.8838 22.1721 76.8984 22.1788 76.908 22.1844C76.9267 22.1954 76.9077 22.1907 76.8634 22.1283L75.2323 23.2858C75.5869 23.7854 76.1228 24.1611 76.8242 24.1611V22.1611ZM76.8839 22.1584C76.8079 22.0426 76.7402 21.8585 76.7402 21.5498H74.7402C74.7402 22.159 74.8776 22.7465 75.2118 23.2557L76.8839 22.1584ZM76.7402 21.5498C76.7402 21.3353 76.7837 20.9473 76.8984 20.3453L74.9337 19.9711C74.814 20.5996 74.7402 21.1393 74.7402 21.5498H76.7402ZM76.8995 20.3391L77.4708 17.2337L75.5038 16.8718L74.9325 19.9773L76.8995 20.3391ZM77.4747 17.2107C77.5524 16.7256 77.6045 16.3117 77.6045 16.0273H75.6045C75.6045 16.1336 75.5785 16.4033 75.4999 16.8947L77.4747 17.2107ZM77.6045 16.0273C77.6045 15.6525 77.5036 15.2046 77.1505 14.8515L75.7363 16.2657C75.6732 16.2027 75.6367 16.1343 75.6185 16.0814C75.6019 16.0332 75.6045 16.0098 75.6045 16.0273H77.6045ZM77.1505 14.8515C76.8155 14.5165 76.3922 14.3975 76.0039 14.3975V16.3975C76.0009 16.3975 75.9644 16.397 75.9087 16.3766C75.8494 16.3549 75.788 16.3175 75.7363 16.2657L77.1505 14.8515ZM76.0039 14.3975C75.3133 14.3975 74.7086 14.7593 74.2194 15.1852C73.7137 15.6255 73.2042 16.2448 72.6877 17.0017L74.3397 18.1291C74.8094 17.4407 75.2082 16.9761 75.5326 16.6937C75.8734 16.397 76.0207 16.3975 76.0039 16.3975V14.3975ZM72.6906 16.9974C72.1828 17.7332 71.7572 18.4724 71.4177 19.2151L73.2366 20.0466C73.5221 19.4221 73.8875 18.7843 74.3367 18.1334L72.6906 16.9974ZM71.42 19.2101C71.083 19.9366 70.7172 20.9173 70.3215 22.1341L72.2234 22.7526C72.609 21.5671 72.9463 20.6728 73.2343 20.0516L71.42 19.2101ZM70.3238 22.1271L70.1919 22.5226L72.0893 23.1551L72.2211 22.7596L70.3238 22.1271ZM70.8415 21.8846L69.8601 22.1923L70.4583 24.1007L71.4397 23.7931L70.8415 21.8846Z" fill="black"/>
<path d="M27 15.6701C25.275 18.6961 22.0191 20.7362 18.2868 20.7362C12.7514 20.7362 8.26414 16.2489 8.26414 10.7136C8.26414 6.98097 10.3046 3.72492 13.3309 2C6.97341 2.60279 2 7.95648 2 14.4718C2 21.3909 7.6091 27 14.5283 27C21.0433 27 26.3967 22.0271 27 15.6701Z" stroke="#58A786" stroke-width="3" stroke-linecap="round" stroke-linejoin="round"/>
<path d="M23.0879 10.1161C23.7546 10.501 23.7546 11.4633 23.0879 11.8482L16.1925 15.8292C15.5259 16.2141 14.6925 15.733 14.6925 14.9632L14.6925 7.00112C14.6925 6.23132 15.5259 5.7502 16.1925 6.1351L23.0879 10.1161Z" fill="#67AC9F"/>
</svg>
