<svg width="122" height="70" viewBox="0 0 122 70" fill="none" xmlns="http://www.w3.org/2000/svg">
<path d="M106.734 42.2196C111.555 45.5753 110.068 53.0279 104.324 54.2995L34.1441 69.8347C29.3737 70.8907 25.0851 66.7243 26.0361 61.9577L37.3153 5.42488C38.2663 0.658305 43.8297 -1.56473 47.8334 1.22203L106.734 42.2196Z" fill="#789890"/>
<path d="M45.972 27.2077C52.2832 25.4549 58.8284 29.1211 60.5913 35.3964C62.3541 41.6717 58.667 48.1799 52.3559 49.9327C46.0447 51.6856 39.4995 48.0194 37.7366 41.744C35.9738 35.4687 39.6609 28.9606 45.972 27.2077Z" fill="#B7E7CA"/>
<path d="M45.0292 27.7275C49.4418 26.5019 54.0182 29.0653 55.2507 33.4529C56.4833 37.8405 53.9053 42.3909 49.4927 43.6165C45.08 44.842 40.5036 42.2787 39.2711 37.8911C38.0385 33.5034 40.6165 28.9531 45.0292 27.7275Z" fill="#789890"/>
<path d="M2.96389 20.5193C0.97443 20.5193 0 21.9727 0 23.3857V49.1827C0 50.7975 1.05563 52.049 2.67968 52.049C4.26313 52.049 5.44057 50.7975 5.44057 49.1827V39.9781L5.35937 31.5406L10.7187 41.8352C11.5308 43.5711 12.221 44.3786 13.9668 44.3786C15.7127 44.3786 16.4435 43.4904 17.3367 41.7545L22.7773 31.2176L22.7367 40.0185V49.1827C22.7367 50.7975 23.7923 52.049 25.4164 52.049C26.9998 52.049 28.1773 50.7975 28.1773 49.1827V23.3857C28.1773 22.0131 27.2028 20.5193 25.2134 20.5193C23.6705 20.5193 22.6149 21.1653 21.9247 22.5782L14.0886 37.7577L6.2932 22.5782C5.56237 21.1653 4.50674 20.5193 2.96389 20.5193Z" fill="white"/>
<path d="M91.7002 38.1592C91.7002 39.9804 91.416 41.6289 90.8476 43.1046C90.3107 44.549 89.5371 45.7893 88.5265 46.8255C87.516 47.8617 86.3002 48.6624 84.8792 49.2276C83.4581 49.7614 81.8634 50.0283 80.095 50.0283C78.3266 50.0283 76.7319 49.7614 75.3108 49.2276C73.8898 48.6624 72.674 47.8774 71.6635 46.8726C70.6529 45.8364 69.8635 44.5961 69.2951 43.1517C68.7582 41.6759 68.4898 40.0118 68.4898 38.1592C68.4898 36.338 68.7582 34.7052 69.2951 33.2608C69.8635 31.7851 70.6529 30.5448 71.6635 29.54C72.7056 28.5038 73.9371 27.7188 75.3582 27.185C76.7792 26.6198 78.3582 26.3372 80.095 26.3372C81.8318 26.3372 83.4108 26.6198 84.8318 27.185C86.2529 27.7188 87.4686 28.5038 88.4792 29.54C89.5213 30.5762 90.3107 31.8322 90.8476 33.3079C91.416 34.7523 91.7002 36.3694 91.7002 38.1592ZM80.095 31.0472C78.3897 31.0472 77.0476 31.6752 76.0687 32.9312C75.0898 34.1557 74.6003 35.8984 74.6003 38.1592C74.6003 40.4514 75.074 42.2097 76.0213 43.4343C77.0003 44.6589 78.3582 45.2712 80.095 45.2712C81.8318 45.2712 83.1739 44.6589 84.1213 43.4343C85.1002 42.1783 85.5897 40.42 85.5897 38.1592C85.5897 35.8984 85.1002 34.1557 84.1213 32.9312C83.1423 31.6752 81.8002 31.0472 80.095 31.0472Z" fill="white"/>
<path d="M116.032 34.9564C116.032 33.6062 115.637 32.6172 114.847 31.9892C114.09 31.3612 113.047 31.0472 111.721 31.0472C110.805 31.0472 109.953 31.1571 109.163 31.3769C108.405 31.5967 107.742 31.8793 107.174 32.2247V49.2747C106.89 49.3375 106.511 49.416 106.037 49.5102C105.563 49.6044 105.026 49.6515 104.426 49.6515C103.321 49.6515 102.5 49.4474 101.963 49.0392C101.426 48.631 101.158 47.9088 101.158 46.8726V31.7537C101.158 31.0001 101.316 30.3878 101.632 29.9168C101.947 29.4458 102.437 28.9905 103.1 28.5509C104.016 27.9229 105.232 27.4048 106.747 26.9966C108.263 26.557 109.937 26.3372 111.768 26.3372C115.021 26.3372 117.532 27.0594 119.3 28.5038C121.1 29.9168 122 32.0049 122 34.768V49.2747C121.747 49.3375 121.368 49.416 120.863 49.5102C120.389 49.6044 119.868 49.6515 119.3 49.6515C118.163 49.6515 117.326 49.4474 116.79 49.0392C116.284 48.631 116.032 47.9088 116.032 46.8726V34.9564Z" fill="white"/>
</svg>
