<svg width="38" height="38" viewBox="0 0 38 38" fill="none" xmlns="http://www.w3.org/2000/svg">
<path d="M6.27208 6.27208C4.17896 8.3652 2.63435 10.9422 1.77507 13.7749C0.915797 16.6075 0.768375 19.6084 1.34587 22.5116C1.92336 25.4149 3.20793 28.1309 5.08581 30.4191C6.96369 32.7073 9.37691 34.497 12.1117 35.6298C14.8465 36.7626 17.8184 37.2035 20.7643 36.9133C23.7102 36.6232 26.539 35.611 29.0003 33.9665C31.4615 32.3219 33.4792 30.0957 34.8746 27.4851C36.27 24.8746 37 21.9601 37 19" stroke="#58A786" stroke-width="2"/>
<path d="M26.8748 2.81395C24.2604 1.54201 21.3768 0.922284 18.4706 1.00779C15.5645 1.09329 12.7224 1.88147 10.1873 3.30492" stroke="#58A786" stroke-width="2"/>
<path d="M35.3933 11.5664C34.5967 9.80949 33.5227 8.19205 32.2126 6.77601" stroke="#58A786" stroke-width="2"/>
</svg>
